<svg xmlns="http://www.w3.org/2000/svg" xmlns:xlink="http://www.w3.org/1999/xlink" viewBox="0 0 500 500" width="500" height="500" preserveAspectRatio="xMidYMid slice" style="width: 100%; height: 100%; transform: translate3d(0px, 0px, 0px); content-visibility: visible;"><defs><clipPath id="__lottie_element_2"><rect width="500" height="500" x="0" y="0"></rect></clipPath><clipPath id="__lottie_element_7"><path d="M0,0 L500,0 L500,500 L0,500z"></path></clipPath><clipPath id="__lottie_element_38"><path d="M0,0 L500,0 L500,500 L0,500z"></path></clipPath></defs><g clip-path="url(#__lottie_element_2)"><g transform="matrix(0.4305618703365326,0.9025610685348511,-0.9025610685348511,0.4305618703365326,375.2263488769531,-264.266845703125)" opacity="1" style="display: block;"><g opacity="1" transform="matrix(1,0,0,1,397.0450134277344,165.23399353027344)"><path fill="rgb(188,255,242)" fill-opacity="1" d=" M-15.406999588012695,-25.5310001373291 C-13.119000434875488,-26.913000106811523 -10.684000015258789,-27.961000442504883 -8.17199993133545,-28.674999237060547 C-8.17199993133545,-28.674999237060547 -6.682000160217285,-35.834999084472656 -6.682000160217285,-35.834999084472656 C-6.682000160217285,-35.834999084472656 5.416999816894531,-36.04800033569336 5.416999816894531,-36.04800033569336 C5.416999816894531,-36.04800033569336 7.158999919891357,-28.94499969482422 7.158999919891357,-28.94499969482422 C9.694000244140625,-28.31999969482422 12.164999961853027,-27.357999801635742 14.5,-26.05699920654297 C14.5,-26.05699920654297 20.614999771118164,-30.06399917602539 20.614999771118164,-30.06399917602539 C20.614999771118164,-30.06399917602539 29.31999969482422,-21.658000946044922 29.31999969482422,-21.658000946044922 C29.31999969482422,-21.658000946044922 25.530000686645508,-15.407999992370605 25.530000686645508,-15.407999992370605 C26.913000106811523,-13.119000434875488 27.961000442504883,-10.682999610900879 28.673999786376953,-8.170999526977539 C28.673999786376953,-8.170999526977539 35.834999084472656,-6.682000160217285 35.834999084472656,-6.682000160217285 C35.834999084472656,-6.682000160217285 36.047000885009766,5.416999816894531 36.047000885009766,5.416999816894531 C36.047000885009766,5.416999816894531 28.94300079345703,7.159999847412109 28.94300079345703,7.159999847412109 C28.319000244140625,9.694999694824219 27.35700035095215,12.163999557495117 26.05500030517578,14.49899959564209 C26.05500030517578,14.49899959564209 30.062999725341797,20.61400032043457 30.062999725341797,20.61400032043457 C30.062999725341797,20.61400032043457 21.659000396728516,29.31999969482422 21.659000396728516,29.31999969482422 C21.659000396728516,29.31999969482422 15.406999588012695,25.5310001373291 15.406999588012695,25.5310001373291 C13.119000434875488,26.913000106811523 10.682999610900879,27.959999084472656 8.170999526977539,28.67300033569336 C8.170999526977539,28.67300033569336 6.681000232696533,35.834999084472656 6.681000232696533,35.834999084472656 C6.681000232696533,35.834999084472656 -5.418000221252441,36.04800033569336 -5.418000221252441,36.04800033569336 C-5.418000221252441,36.04800033569336 -7.158999919891357,28.94300079345703 -7.158999919891357,28.94300079345703 C-9.694999694824219,28.31800079345703 -12.164999961853027,27.356000900268555 -14.5,26.05500030517578 C-14.5,26.05500030517578 -20.614999771118164,30.062999725341797 -20.614999771118164,30.062999725341797 C-20.614999771118164,30.062999725341797 -29.320999145507812,21.656999588012695 -29.320999145507812,21.656999588012695 C-29.320999145507812,21.656999588012695 -25.530000686645508,15.406000137329102 -25.530000686645508,15.406000137329102 C-26.913000106811523,13.118000030517578 -27.961999893188477,10.682999610900879 -28.674999237060547,8.170999526977539 C-28.674999237060547,8.170999526977539 -35.83599853515625,6.679999828338623 -35.83599853515625,6.679999828338623 C-35.83599853515625,6.679999828338623 -36.04800033569336,-5.416999816894531 -36.04800033569336,-5.416999816894531 C-36.04800033569336,-5.416999816894531 -28.944000244140625,-7.159999847412109 -28.944000244140625,-7.159999847412109 C-28.319000244140625,-9.694999694824219 -27.356000900268555,-12.166000366210938 -26.055999755859375,-14.50100040435791 C-26.055999755859375,-14.50100040435791 -30.06399917602539,-20.614999771118164 -30.06399917602539,-20.614999771118164 C-30.06399917602539,-20.614999771118164 -21.659000396728516,-29.320999145507812 -21.659000396728516,-29.320999145507812 C-21.659000396728516,-29.320999145507812 -15.406999588012695,-25.5310001373291 -15.406999588012695,-25.5310001373291z M-8.956999778747559,-9.413000106811523 C-13.937000274658203,-4.255000114440918 -13.793000221252441,3.9630000591278076 -8.633999824523926,8.942000389099121 C-3.4769999980926514,13.92199993133545 4.741000175476074,13.777000427246094 9.720999717712402,8.619999885559082 C14.699999809265137,3.4619998931884766 14.555999755859375,-4.75600004196167 9.39799976348877,-9.736000061035156 C4.239999771118164,-14.71500015258789 -3.9769999980926514,-14.571000099182129 -8.956999778747559,-9.413000106811523z"></path></g></g><g transform="matrix(0.4305618703365326,0.9025610685348511,-0.9025610685348511,0.4305618703365326,262.99151611328125,57.503692626953125)" opacity="1" style="display: block;"><g opacity="1" transform="matrix(1,0,0,1,85.92400360107422,237.17300415039062)"><path fill="rgb(198,255,244)" fill-opacity="1" d=" M-15.406999588012695,-25.5310001373291 C-13.119000434875488,-26.913000106811523 -10.684000015258789,-27.961000442504883 -8.17199993133545,-28.674999237060547 C-8.17199993133545,-28.674999237060547 -6.682000160217285,-35.834999084472656 -6.682000160217285,-35.834999084472656 C-6.682000160217285,-35.834999084472656 5.416999816894531,-36.04800033569336 5.416999816894531,-36.04800033569336 C5.416999816894531,-36.04800033569336 7.159999847412109,-28.94499969482422 7.159999847412109,-28.94499969482422 C9.694999694824219,-28.31999969482422 12.166000366210938,-27.357999801635742 14.50100040435791,-26.05699920654297 C14.50100040435791,-26.05699920654297 20.615999221801758,-30.06399917602539 20.615999221801758,-30.06399917602539 C20.615999221801758,-30.06399917602539 29.31999969482422,-21.658000946044922 29.31999969482422,-21.658000946044922 C29.31999969482422,-21.658000946044922 25.5310001373291,-15.407999992370605 25.5310001373291,-15.407999992370605 C26.913999557495117,-13.119999885559082 27.961000442504883,-10.682999610900879 28.673999786376953,-8.170999526977539 C28.673999786376953,-8.170999526977539 35.834999084472656,-6.682000160217285 35.834999084472656,-6.682000160217285 C35.834999084472656,-6.682000160217285 36.04800033569336,5.416999816894531 36.04800033569336,5.416999816894531 C36.04800033569336,5.416999816894531 28.94300079345703,7.158999919891357 28.94300079345703,7.158999919891357 C28.31800079345703,9.694000244140625 27.357999801635742,12.163999557495117 26.055999755859375,14.49899959564209 C26.055999755859375,14.49899959564209 30.062999725341797,20.61400032043457 30.062999725341797,20.61400032043457 C30.062999725341797,20.61400032043457 21.659000396728516,29.31999969482422 21.659000396728516,29.31999969482422 C21.659000396728516,29.31999969482422 15.407999992370605,25.530000686645508 15.407999992370605,25.530000686645508 C13.119999885559082,26.91200065612793 10.684000015258789,27.959999084472656 8.17199993133545,28.67300033569336 C8.17199993133545,28.67300033569336 6.682000160217285,35.834999084472656 6.682000160217285,35.834999084472656 C6.682000160217285,35.834999084472656 -5.418000221252441,36.04800033569336 -5.418000221252441,36.04800033569336 C-5.418000221252441,36.04800033569336 -7.158999919891357,28.94300079345703 -7.158999919891357,28.94300079345703 C-9.694999694824219,28.31800079345703 -12.164999961853027,27.356000900268555 -14.5,26.05500030517578 C-14.5,26.05500030517578 -20.614999771118164,30.062999725341797 -20.614999771118164,30.062999725341797 C-20.614999771118164,30.062999725341797 -29.31999969482422,21.658000946044922 -29.31999969482422,21.658000946044922 C-29.31999969482422,21.658000946044922 -25.5310001373291,15.406999588012695 -25.5310001373291,15.406999588012695 C-26.913000106811523,13.118000030517578 -27.961000442504883,10.682999610900879 -28.673999786376953,8.170999526977539 C-28.673999786376953,8.170999526977539 -35.834999084472656,6.679999828338623 -35.834999084472656,6.679999828338623 C-35.834999084472656,6.679999828338623 -36.04800033569336,-5.416999816894531 -36.04800033569336,-5.416999816894531 C-36.04800033569336,-5.416999816894531 -28.94300079345703,-7.159999847412109 -28.94300079345703,-7.159999847412109 C-28.31800079345703,-9.694999694824219 -27.354999542236328,-12.166000366210938 -26.05500030517578,-14.50100040435791 C-26.05500030517578,-14.50100040435791 -30.06399917602539,-20.614999771118164 -30.06399917602539,-20.614999771118164 C-30.06399917602539,-20.614999771118164 -21.659000396728516,-29.320999145507812 -21.659000396728516,-29.320999145507812 C-21.659000396728516,-29.320999145507812 -15.406999588012695,-25.5310001373291 -15.406999588012695,-25.5310001373291z M-8.956000328063965,-9.413000106811523 C-13.935999870300293,-4.255000114440918 -13.791000366210938,3.9630000591278076 -8.633000373840332,8.942999839782715 C-3.4760000705718994,13.92199993133545 4.741000175476074,13.777999877929688 9.720999717712402,8.619999885559082 C14.699999809265137,3.4619998931884766 14.555999755859375,-4.75600004196167 9.39799976348877,-9.736000061035156 C4.239999771118164,-14.71500015258789 -3.9760000705718994,-14.571000099182129 -8.956000328063965,-9.413000106811523z"></path></g></g><g transform="matrix(0.3401438891887665,0.7130232453346252,-0.7130232453346252,0.3401438891887665,124.80824279785156,-274.0716552734375)" opacity="1" style="display: block;"><g opacity="1" transform="matrix(1,0,0,1,397.0450134277344,165.23399353027344)"><path fill="rgb(188,255,242)" fill-opacity="1" d=" M-15.406999588012695,-25.5310001373291 C-13.119000434875488,-26.913000106811523 -10.684000015258789,-27.961000442504883 -8.17199993133545,-28.674999237060547 C-8.17199993133545,-28.674999237060547 -6.682000160217285,-35.834999084472656 -6.682000160217285,-35.834999084472656 C-6.682000160217285,-35.834999084472656 5.416999816894531,-36.04800033569336 5.416999816894531,-36.04800033569336 C5.416999816894531,-36.04800033569336 7.158999919891357,-28.94499969482422 7.158999919891357,-28.94499969482422 C9.694000244140625,-28.31999969482422 12.164999961853027,-27.357999801635742 14.5,-26.05699920654297 C14.5,-26.05699920654297 20.614999771118164,-30.06399917602539 20.614999771118164,-30.06399917602539 C20.614999771118164,-30.06399917602539 29.31999969482422,-21.658000946044922 29.31999969482422,-21.658000946044922 C29.31999969482422,-21.658000946044922 25.530000686645508,-15.407999992370605 25.530000686645508,-15.407999992370605 C26.913000106811523,-13.119000434875488 27.961000442504883,-10.682999610900879 28.673999786376953,-8.170999526977539 C28.673999786376953,-8.170999526977539 35.834999084472656,-6.682000160217285 35.834999084472656,-6.682000160217285 C35.834999084472656,-6.682000160217285 36.047000885009766,5.416999816894531 36.047000885009766,5.416999816894531 C36.047000885009766,5.416999816894531 28.94300079345703,7.159999847412109 28.94300079345703,7.159999847412109 C28.319000244140625,9.694999694824219 27.35700035095215,12.163999557495117 26.05500030517578,14.49899959564209 C26.05500030517578,14.49899959564209 30.062999725341797,20.61400032043457 30.062999725341797,20.61400032043457 C30.062999725341797,20.61400032043457 21.659000396728516,29.31999969482422 21.659000396728516,29.31999969482422 C21.659000396728516,29.31999969482422 15.406999588012695,25.5310001373291 15.406999588012695,25.5310001373291 C13.119000434875488,26.913000106811523 10.682999610900879,27.959999084472656 8.170999526977539,28.67300033569336 C8.170999526977539,28.67300033569336 6.681000232696533,35.834999084472656 6.681000232696533,35.834999084472656 C6.681000232696533,35.834999084472656 -5.418000221252441,36.04800033569336 -5.418000221252441,36.04800033569336 C-5.418000221252441,36.04800033569336 -7.158999919891357,28.94300079345703 -7.158999919891357,28.94300079345703 C-9.694999694824219,28.31800079345703 -12.164999961853027,27.356000900268555 -14.5,26.05500030517578 C-14.5,26.05500030517578 -20.614999771118164,30.062999725341797 -20.614999771118164,30.062999725341797 C-20.614999771118164,30.062999725341797 -29.320999145507812,21.656999588012695 -29.320999145507812,21.656999588012695 C-29.320999145507812,21.656999588012695 -25.530000686645508,15.406000137329102 -25.530000686645508,15.406000137329102 C-26.913000106811523,13.118000030517578 -27.961999893188477,10.682999610900879 -28.674999237060547,8.170999526977539 C-28.674999237060547,8.170999526977539 -35.83599853515625,6.679999828338623 -35.83599853515625,6.679999828338623 C-35.83599853515625,6.679999828338623 -36.04800033569336,-5.416999816894531 -36.04800033569336,-5.416999816894531 C-36.04800033569336,-5.416999816894531 -28.944000244140625,-7.159999847412109 -28.944000244140625,-7.159999847412109 C-28.319000244140625,-9.694999694824219 -27.356000900268555,-12.166000366210938 -26.055999755859375,-14.50100040435791 C-26.055999755859375,-14.50100040435791 -30.06399917602539,-20.614999771118164 -30.06399917602539,-20.614999771118164 C-30.06399917602539,-20.614999771118164 -21.659000396728516,-29.320999145507812 -21.659000396728516,-29.320999145507812 C-21.659000396728516,-29.320999145507812 -15.406999588012695,-25.5310001373291 -15.406999588012695,-25.5310001373291z M-8.956999778747559,-9.413000106811523 C-13.937000274658203,-4.255000114440918 -13.793000221252441,3.9630000591278076 -8.633999824523926,8.942000389099121 C-3.4769999980926514,13.92199993133545 4.741000175476074,13.777000427246094 9.720999717712402,8.619999885559082 C14.699999809265137,3.4619998931884766 14.555999755859375,-4.75600004196167 9.39799976348877,-9.736000061035156 C4.239999771118164,-14.71500015258789 -3.9769999980926514,-14.571000099182129 -8.956999778747559,-9.413000106811523z"></path></g></g><g transform="matrix(0.3573663532733917,0.7491256594657898,-0.7491256594657898,0.3573663532733917,561.8900146484375,-56.952537536621094)" opacity="1" style="display: block;"><g opacity="1" transform="matrix(1,0,0,1,85.92400360107422,237.17300415039062)"><path fill="rgb(198,255,244)" fill-opacity="1" d=" M-15.406999588012695,-25.5310001373291 C-13.119000434875488,-26.913000106811523 -10.684000015258789,-27.961000442504883 -8.17199993133545,-28.674999237060547 C-8.17199993133545,-28.674999237060547 -6.682000160217285,-35.834999084472656 -6.682000160217285,-35.834999084472656 C-6.682000160217285,-35.834999084472656 5.416999816894531,-36.04800033569336 5.416999816894531,-36.04800033569336 C5.416999816894531,-36.04800033569336 7.159999847412109,-28.94499969482422 7.159999847412109,-28.94499969482422 C9.694999694824219,-28.31999969482422 12.166000366210938,-27.357999801635742 14.50100040435791,-26.05699920654297 C14.50100040435791,-26.05699920654297 20.615999221801758,-30.06399917602539 20.615999221801758,-30.06399917602539 C20.615999221801758,-30.06399917602539 29.31999969482422,-21.658000946044922 29.31999969482422,-21.658000946044922 C29.31999969482422,-21.658000946044922 25.5310001373291,-15.407999992370605 25.5310001373291,-15.407999992370605 C26.913999557495117,-13.119999885559082 27.961000442504883,-10.682999610900879 28.673999786376953,-8.170999526977539 C28.673999786376953,-8.170999526977539 35.834999084472656,-6.682000160217285 35.834999084472656,-6.682000160217285 C35.834999084472656,-6.682000160217285 36.04800033569336,5.416999816894531 36.04800033569336,5.416999816894531 C36.04800033569336,5.416999816894531 28.94300079345703,7.158999919891357 28.94300079345703,7.158999919891357 C28.31800079345703,9.694000244140625 27.357999801635742,12.163999557495117 26.055999755859375,14.49899959564209 C26.055999755859375,14.49899959564209 30.062999725341797,20.61400032043457 30.062999725341797,20.61400032043457 C30.062999725341797,20.61400032043457 21.659000396728516,29.31999969482422 21.659000396728516,29.31999969482422 C21.659000396728516,29.31999969482422 15.407999992370605,25.530000686645508 15.407999992370605,25.530000686645508 C13.119999885559082,26.91200065612793 10.684000015258789,27.959999084472656 8.17199993133545,28.67300033569336 C8.17199993133545,28.67300033569336 6.682000160217285,35.834999084472656 6.682000160217285,35.834999084472656 C6.682000160217285,35.834999084472656 -5.418000221252441,36.04800033569336 -5.418000221252441,36.04800033569336 C-5.418000221252441,36.04800033569336 -7.158999919891357,28.94300079345703 -7.158999919891357,28.94300079345703 C-9.694999694824219,28.31800079345703 -12.164999961853027,27.356000900268555 -14.5,26.05500030517578 C-14.5,26.05500030517578 -20.614999771118164,30.062999725341797 -20.614999771118164,30.062999725341797 C-20.614999771118164,30.062999725341797 -29.31999969482422,21.658000946044922 -29.31999969482422,21.658000946044922 C-29.31999969482422,21.658000946044922 -25.5310001373291,15.406999588012695 -25.5310001373291,15.406999588012695 C-26.913000106811523,13.118000030517578 -27.961000442504883,10.682999610900879 -28.673999786376953,8.170999526977539 C-28.673999786376953,8.170999526977539 -35.834999084472656,6.679999828338623 -35.834999084472656,6.679999828338623 C-35.834999084472656,6.679999828338623 -36.04800033569336,-5.416999816894531 -36.04800033569336,-5.416999816894531 C-36.04800033569336,-5.416999816894531 -28.94300079345703,-7.159999847412109 -28.94300079345703,-7.159999847412109 C-28.31800079345703,-9.694999694824219 -27.354999542236328,-12.166000366210938 -26.05500030517578,-14.50100040435791 C-26.05500030517578,-14.50100040435791 -30.06399917602539,-20.614999771118164 -30.06399917602539,-20.614999771118164 C-30.06399917602539,-20.614999771118164 -21.659000396728516,-29.320999145507812 -21.659000396728516,-29.320999145507812 C-21.659000396728516,-29.320999145507812 -15.406999588012695,-25.5310001373291 -15.406999588012695,-25.5310001373291z M-8.956000328063965,-9.413000106811523 C-13.935999870300293,-4.255000114440918 -13.791000366210938,3.9630000591278076 -8.633000373840332,8.942999839782715 C-3.4760000705718994,13.92199993133545 4.741000175476074,13.777999877929688 9.720999717712402,8.619999885559082 C14.699999809265137,3.4619998931884766 14.555999755859375,-4.75600004196167 9.39799976348877,-9.736000061035156 C4.239999771118164,-14.71500015258789 -3.9760000705718994,-14.571000099182129 -8.956000328063965,-9.413000106811523z"></path></g></g><g transform="matrix(0.24972587823867798,0.5234854221343994,-0.5234854221343994,0.24972587823867798,160.62315368652344,70.96480560302734)" opacity="1" style="display: block;"><path stroke-linecap="butt" stroke-linejoin="miter" fill-opacity="0" stroke-miterlimit="4" stroke="rgb(188,255,242)" stroke-opacity="1" stroke-width="2" d=" M70.52,211.64 C72.81,210.26 75.24,209.21 77.75,208.5 C77.75,208.5 79.24,201.34 79.24,201.34 C79.24,201.34 91.34,201.13 91.34,201.13 C91.34,201.13 93.08,208.23 93.08,208.23 C95.62,208.85 98.09,209.82 100.43,211.12 C100.43,211.12 106.54,207.11 106.54,207.11 C106.54,207.11 115.24,215.52 115.24,215.52 C115.24,215.52 111.46,221.77 111.46,221.77 C112.84,224.05 113.89,226.49 114.6,229 C114.6,229 121.76,230.49 121.76,230.49 C121.76,230.49 121.97,242.59 121.97,242.59 C121.97,242.59 114.87,244.33 114.87,244.33 C114.24,246.87 113.28,249.34 111.98,251.67 C111.98,251.67 115.99,257.79 115.99,257.79 C115.99,257.79 107.58,266.49 107.58,266.49 C107.58,266.49 101.33,262.7 101.33,262.7 C99.04,264.09 96.61,265.13 94.1,265.85 C94.1,265.85 92.61,273.01 92.61,273.01 C92.61,273.01 80.51,273.22 80.51,273.22 C80.51,273.22 78.77,266.12 78.77,266.12 C76.23,265.49 73.76,264.53 71.42,263.23 C71.42,263.23 65.31,267.24 65.31,267.24 C65.31,267.24 56.6,258.83 56.6,258.83 C56.6,258.83 60.39,252.58 60.39,252.58 C59.01,250.29 57.96,247.86 57.25,245.34 C57.25,245.34 50.09,243.85 50.09,243.85 C50.09,243.85 49.88,231.76 49.88,231.76 C49.88,231.76 56.98,230.01 56.98,230.01 C57.61,227.48 58.57,225.01 59.87,222.67 C59.87,222.67 55.86,216.56 55.86,216.56 C55.86,216.56 64.27,207.85 64.27,207.85 C64.27,207.85 70.52,211.64 70.52,211.64z M76.97,227.76 C71.99,232.92 72.13,241.14 77.29,246.12 C82.45,251.1 90.67,250.95 95.65,245.79 C100.62,240.64 100.48,232.42 95.32,227.44 C90.16,222.46 81.95,222.6 76.97,227.76z"></path><g opacity="1" transform="matrix(1,0,0,1,85.92400360107422,237.17300415039062)"></g></g><g transform="matrix(0.24972587823867798,0.5234854221343994,-0.5234854221343994,0.24972587823867798,469.6231689453125,-46.03519821166992)" opacity="1" style="display: block;"><path stroke-linecap="butt" stroke-linejoin="miter" fill-opacity="0" stroke-miterlimit="4" stroke="rgb(188,255,242)" stroke-opacity="1" stroke-width="2" d=" M70.52,211.64 C72.81,210.26 75.24,209.21 77.75,208.5 C77.75,208.5 79.24,201.34 79.24,201.34 C79.24,201.34 91.34,201.13 91.34,201.13 C91.34,201.13 93.08,208.23 93.08,208.23 C95.62,208.85 98.09,209.82 100.43,211.12 C100.43,211.12 106.54,207.11 106.54,207.11 C106.54,207.11 115.24,215.52 115.24,215.52 C115.24,215.52 111.46,221.77 111.46,221.77 C112.84,224.05 113.89,226.49 114.6,229 C114.6,229 121.76,230.49 121.76,230.49 C121.76,230.49 121.97,242.59 121.97,242.59 C121.97,242.59 114.87,244.33 114.87,244.33 C114.24,246.87 113.28,249.34 111.98,251.67 C111.98,251.67 115.99,257.79 115.99,257.79 C115.99,257.79 107.58,266.49 107.58,266.49 C107.58,266.49 101.33,262.7 101.33,262.7 C99.04,264.09 96.61,265.13 94.1,265.85 C94.1,265.85 92.61,273.01 92.61,273.01 C92.61,273.01 80.51,273.22 80.51,273.22 C80.51,273.22 78.77,266.12 78.77,266.12 C76.23,265.49 73.76,264.53 71.42,263.23 C71.42,263.23 65.31,267.24 65.31,267.24 C65.31,267.24 56.6,258.83 56.6,258.83 C56.6,258.83 60.39,252.58 60.39,252.58 C59.01,250.29 57.96,247.86 57.25,245.34 C57.25,245.34 50.09,243.85 50.09,243.85 C50.09,243.85 49.88,231.76 49.88,231.76 C49.88,231.76 56.98,230.01 56.98,230.01 C57.61,227.48 58.57,225.01 59.87,222.67 C59.87,222.67 55.86,216.56 55.86,216.56 C55.86,216.56 64.27,207.85 64.27,207.85 C64.27,207.85 70.52,211.64 70.52,211.64z M76.97,227.76 C71.99,232.92 72.13,241.14 77.29,246.12 C82.45,251.1 90.67,250.95 95.65,245.79 C100.62,240.64 100.48,232.42 95.32,227.44 C90.16,222.46 81.95,222.6 76.97,227.76z"></path><g opacity="1" transform="matrix(1,0,0,1,85.92400360107422,237.17300415039062)"></g></g><g clip-path="url(#__lottie_element_38)" transform="matrix(1,0,0,1,0,0)" opacity="1" style="display: block;"><g transform="matrix(1,0,0,1,-2.5,-5)" opacity="1" style="display: block;"><path fill="rgb(86,255,240)" fill-opacity="1" d=" M490.322998046875,317.2090148925781 C490.322998046875,317.2090148925781 436.42498779296875,275.8599853515625 436.42498779296875,275.8599853515625 C436.42498779296875,275.8599853515625 436.42498779296875,279.5840148925781 436.42498779296875,279.5840148925781 C436.42498779296875,279.5840148925781 436.42498779296875,298.7090148925781 436.42498779296875,298.7090148925781 C436.42498779296875,298.7090148925781 350.0140075683594,298.7090148925781 350.0140075683594,298.7090148925781 C332.2619934082031,316.39898681640625 310.5570068359375,329.0369873046875 286.74798583984375,335.7090148925781 C286.74798583984375,335.7090148925781 436.42498779296875,335.7090148925781 436.42498779296875,335.7090148925781 C436.42498779296875,335.7090148925781 436.42498779296875,358.5580139160156 436.42498779296875,358.5580139160156 C436.42498779296875,358.5580139160156 490.322998046875,317.2090148925781 490.322998046875,317.2090148925781z"></path></g><g transform="matrix(1,0,0,1,-2.5,-5)" opacity="1" style="display: block;"><path fill="rgb(86,255,240)" fill-opacity="1" d=" M241.6580047607422,304.1679992675781 C181.31900024414062,304.1679992675781 132.22999572753906,255.07899475097656 132.22999572753906,194.74000549316406 C132.22999572753906,194.74000549316406 132.97999572753906,186.0590057373047 133.8209991455078,178.63999938964844 C133.8209991455078,178.63999938964844 108.5510025024414,197.552001953125 108.5510025024414,197.552001953125 C108.5510025024414,197.552001953125 97.57099914550781,171.0679931640625 97.57099914550781,171.0679931640625 C96.4219970703125,182.57400512695312 95.28700256347656,201.3000030517578 95.68699645996094,206.3679962158203 C98.23200225830078,238.60400390625 111.26799774169922,267.92999267578125 131.36399841308594,290.9410095214844 C131.36399841308594,290.9410095214844 148.38400268554688,304.1679992675781 148.38400268554688,304.1679992675781 C148.38400268554688,304.1679992675781 241.6580047607422,304.1679992675781 241.6580047607422,304.1679992675781z"></path></g></g><g transform="matrix(0.3977988064289093,0.9174726605415344,-0.9174726605415344,0.3977988064289093,323.21044921875,-103.96600341796875)" opacity="1" style="display: block;"><g opacity="1" transform="matrix(1,0,0,1,242.30299377441406,196.51300048828125)"><path fill="rgb(178,255,240)" fill-opacity="1" d=" M-49.354000091552734,-54.183998107910156 C-44.5,-58.611000061035156 -39.130001068115234,-62.303001403808594 -33.41600036621094,-65.2239990234375 C-33.41600036621094,-65.2239990234375 -33.24800109863281,-83.2030029296875 -33.24800109863281,-83.2030029296875 C-33.24800109863281,-83.2030029296875 -4.178999900817871,-89.5009994506836 -4.178999900817871,-89.5009994506836 C-4.178999900817871,-89.5009994506836 3.4170000553131104,-73.20700073242188 3.4170000553131104,-73.20700073242188 C9.829000473022461,-72.91300201416016 16.246000289916992,-71.7760009765625 22.49799919128418,-69.75499725341797 C22.49799919128418,-69.75499725341797 35.32500076293945,-82.34300231933594 35.32500076293945,-82.34300231933594 C35.32500076293945,-82.34300231933594 60.332000732421875,-66.24099731445312 60.332000732421875,-66.24099731445312 C60.332000732421875,-66.24099731445312 54.183998107910156,-49.358001708984375 54.183998107910156,-49.358001708984375 C58.61199951171875,-44.50199890136719 62.30400085449219,-39.130001068115234 65.2249984741211,-33.415000915527344 C65.2249984741211,-33.415000915527344 83.20099639892578,-33.24700164794922 83.20099639892578,-33.24700164794922 C83.20099639892578,-33.24700164794922 89.5,-4.177999973297119 89.5,-4.177999973297119 C89.5,-4.177999973297119 73.20600128173828,3.4179999828338623 73.20600128173828,3.4179999828338623 C72.91200256347656,9.829000473022461 71.77400207519531,16.2450008392334 69.75399780273438,22.496999740600586 C69.75399780273438,22.496999740600586 82.34100341796875,35.32400131225586 82.34100341796875,35.32400131225586 C82.34100341796875,35.32400131225586 66.24199676513672,60.33300018310547 66.24199676513672,60.33300018310547 C66.24199676513672,60.33300018310547 49.356998443603516,54.183998107910156 49.356998443603516,54.183998107910156 C44.50199890136719,58.61199951171875 39.130001068115234,62.303001403808594 33.415000915527344,65.2239990234375 C33.415000915527344,65.2239990234375 33.24599838256836,83.2030029296875 33.24599838256836,83.2030029296875 C33.24599838256836,83.2030029296875 4.178999900817871,89.5009994506836 4.178999900817871,89.5009994506836 C4.178999900817871,89.5009994506836 -3.4179999828338623,73.20500183105469 -3.4179999828338623,73.20500183105469 C-9.829000473022461,72.91100311279297 -16.246000289916992,71.77300262451172 -22.49799919128418,69.75299835205078 C-22.49799919128418,69.75299835205078 -35.323001861572266,82.34100341796875 -35.323001861572266,82.34100341796875 C-35.323001861572266,82.34100341796875 -60.332000732421875,66.23999786376953 -60.332000732421875,66.23999786376953 C-60.332000732421875,66.23999786376953 -54.183998107910156,49.35599899291992 -54.183998107910156,49.35599899291992 C-58.61199951171875,44.500999450683594 -62.30500030517578,39.13100051879883 -65.22599792480469,33.415000915527344 C-65.22599792480469,33.415000915527344 -83.2020034790039,33.24700164794922 -83.2020034790039,33.24700164794922 C-83.2020034790039,33.24700164794922 -89.5009994506836,4.177999973297119 -89.5009994506836,4.177999973297119 C-89.5009994506836,4.177999973297119 -73.20600128173828,-3.4189999103546143 -73.20600128173828,-3.4189999103546143 C-72.91200256347656,-9.829000473022461 -71.77300262451172,-16.246000289916992 -69.75399780273438,-22.49799919128418 C-69.75399780273438,-22.49799919128418 -82.33999633789062,-35.32400131225586 -82.33999633789062,-35.32400131225586 C-82.33999633789062,-35.32400131225586 -66.24199676513672,-60.33300018310547 -66.24199676513672,-60.33300018310547 C-66.24199676513672,-60.33300018310547 -49.354000091552734,-54.183998107910156 -49.354000091552734,-54.183998107910156z M-33.11800003051758,-21.32200050354004 C-44.89400100708008,-3.0299999713897705 -39.61399841308594,21.3439998626709 -21.32200050354004,33.11899948120117 C-3.0299999713897705,44.89500045776367 21.3439998626709,39.612998962402344 33.11899948120117,21.320999145507812 C44.893001556396484,3.0299999713897705 39.612998962402344,-21.344999313354492 21.320999145507812,-33.119998931884766 C3.0299999713897705,-44.89500045776367 -21.341999053955078,-39.612998962402344 -33.11800003051758,-21.32200050354004z"></path></g></g><g transform="matrix(0.995414674282074,-0.0956534743309021,0.0956534743309021,0.995414674282074,-17.454544067382812,20.38287353515625)" opacity="1" style="display: block;"><g opacity="1" transform="matrix(1,0,0,1,165.73500061035156,238.92300415039062)"><path fill="rgb(158,255,246)" fill-opacity="1" d=" M-12.508999824523926,-1.3799999952316284 C-12.508999824523926,-1.3799999952316284 -13.668999671936035,-0.7850000262260437 -12.859999656677246,0.06499999761581421 C-12.050999641418457,0.9139999747276306 -1.3700000047683716,10.397000312805176 0.07199999690055847,11.32800006866455 C1.5140000581741333,12.258000373840332 5.835000038146973,13.380000114440918 5.835000038146973,13.380000114440918 C5.835000038146973,13.380000114440918 8.657999992370605,12.854999542236328 8.657999992370605,12.854999542236328 C8.657999992370605,12.854999542236328 10.309000015258789,6.052999973297119 10.309000015258789,6.052999973297119 C10.309000015258789,6.052999973297119 12.300999641418457,2.7799999713897705 12.300999641418457,2.7799999713897705 C12.300999641418457,2.7799999713897705 11.793999671936035,2.0280001163482666 11.793999671936035,2.0280001163482666 C11.793999671936035,2.0280001163482666 13.668999671936035,-5.24399995803833 13.668999671936035,-5.24399995803833 C13.668999671936035,-5.24399995803833 12.041000366210938,-5.9039998054504395 11.29699993133545,-4.73199987411499 C10.246999740600586,-3.0789999961853027 8.795999526977539,-0.40700000524520874 8.795999526977539,-0.40700000524520874 C8.795999526977539,-0.40700000524520874 5.859000205993652,0.03999999910593033 4.789999961853027,-1.2350000143051147 C3.7219998836517334,-2.509999990463257 -2.503999948501587,-13.015000343322754 -3.256999969482422,-13.197999954223633 C-4.011000156402588,-13.380000114440918 -5.1539998054504395,-13.151000022888184 -4.545000076293945,-11.479000091552734 C-3.934999942779541,-9.807999610900879 0.04600000008940697,-3.8519999980926514 -0.10599999874830246,-3.5260000228881836 C-0.25699999928474426,-3.200000047683716 -0.8610000014305115,-2.752000093460083 -1.1540000438690186,-3.0409998893737793 C-1.4459999799728394,-3.3289999961853027 -7.797999858856201,-11.717000007629395 -8.803999900817871,-11.861000061035156 C-9.87600040435791,-12.013999938964844 -10.645000457763672,-11.147000312805176 -9.65999984741211,-9.529999732971191 C-8.675000190734863,-7.913000106811523 -3.50600004196167,-2.0160000324249268 -3.743000030517578,-1.6380000114440918 C-3.9800000190734863,-1.2610000371932983 -4.666999816894531,-1.7170000076293945 -4.666999816894531,-1.7170000076293945 C-4.666999816894531,-1.7170000076293945 -10.57699966430664,-7.888000011444092 -11.406999588012695,-7.7779998779296875 C-12.32800006866455,-7.656000137329102 -12.472000122070312,-6.730000019073486 -12.005000114440918,-5.964000225067139 C-11.538999557495117,-5.197999954223633 -5.550000190734863,0.5920000076293945 -5.443999767303467,1.0529999732971191 C-5.375,1.3539999723434448 -5.629000186920166,2.5460000038146973 -6.110000133514404,2.1389999389648438 C-6.5920000076293945,1.7319999933242798 -12.038999557495117,-1.7730000019073486 -12.508999824523926,-1.3799999952316284z"></path></g><g opacity="1" transform="matrix(1,0,0,1,191.9080047607422,225.41200256347656)"><path fill="rgb(8,87,160)" fill-opacity="1" d=" M10.902000427246094,-33.358001708984375 C10.902000427246094,-33.358001708984375 6.374000072479248,-24.29400062561035 6.374000072479248,-24.29400062561035 C6.374000072479248,-24.29400062561035 -5.065999984741211,13.576000213623047 -5.065999984741211,13.576000213623047 C-5.065999984741211,13.576000213623047 -17.850000381469727,16.986000061035156 -17.850000381469727,16.986000061035156 C-17.850000381469727,16.986000061035156 -20.253000259399414,28.67099952697754 -20.253000259399414,28.67099952697754 C-20.253000259399414,28.67099952697754 -0.2619999945163727,33.358001708984375 3.447000026702881,31.74799919128418 C9.743000030517578,29.013999938964844 20.253000259399414,2.940000057220459 20.253000259399414,2.940000057220459 C20.253000259399414,2.940000057220459 41.92300033569336,-41.04499816894531 43.61800003051758,-45.94599914550781 C45.3129997253418,-50.84700012207031 10.902000427246094,-33.358001708984375 10.902000427246094,-33.358001708984375z"></path></g><g opacity="1" transform="matrix(1,0,0,1,189.51699829101562,230.8520050048828)"><path fill="rgb(37,46,54)" fill-opacity="1" d=" M-3.384999990463257,11.604999542236328 C-3.5230000019073486,11.5649995803833 -2.11899995803833,6.336999893188477 -0.25,-0.07199999690055847 C1.61899995803833,-6.482999801635742 3.246999979019165,-11.645999908447266 3.384999990463257,-11.605999946594238 C3.5230000019073486,-11.565999984741211 2.11899995803833,-6.336999893188477 0.25,0.07400000095367432 C-1.61899995803833,6.48199987411499 -3.246999979019165,11.645000457763672 -3.384999990463257,11.604999542236328z"></path></g></g><g transform="matrix(0.9918397665023804,0.12749072909355164,-0.12749072909355164,0.9918397665023804,25.064910888671875,-33.599273681640625)" opacity="1" style="display: block;"><g opacity="1" transform="matrix(1,0,0,1,296.3169860839844,149.7310028076172)"><path fill="rgb(158,255,246)" fill-opacity="1" d=" M5.000999927520752,12.225000381469727 C5.000999927520752,12.225000381469727 -0.7580000162124634,12.675999641418457 -1.0989999771118164,12.675999641418457 C-1.440000057220459,12.675999641418457 -7.36899995803833,13.220999717712402 -7.36899995803833,13.220999717712402 C-7.36899995803833,13.220999717712402 -7.0970001220703125,11.789999961853027 -5.732999801635742,11.177000045776367 C-4.369999885559082,10.564000129699707 -1.7710000276565552,9.61400032043457 -1.4989999532699585,9.13700008392334 C-1.2259999513626099,8.65999984741211 -0.621999979019165,7.973999977111816 -1.1670000553131104,7.223999977111816 C-1.7130000591278076,6.474999904632568 -11.645000457763672,-3.6080000400543213 -11.986000061035156,-4.1529998779296875 C-12.32699966430664,-4.697999954223633 -12.871999740600586,-5.71999979019165 -11.986000061035156,-5.925000190734863 C-11.100000381469727,-6.129000186920166 -10.010000228881836,-5.175000190734863 -9.260000228881836,-4.561999797821045 C-8.51099967956543,-3.9489998817443848 -4.64300012588501,-0.6809999942779541 -4.234000205993652,-0.8859999775886536 C-3.825000047683716,-1.090000033378601 -4.165999889373779,-1.430999994277954 -4.165999889373779,-1.430999994277954 C-4.165999889373779,-1.430999994277954 -10.734999656677246,-8.190999984741211 -10.803000450134277,-8.395999908447266 C-10.871000289916992,-8.600000381469727 -11.645000457763672,-10.593000411987305 -9.77400016784668,-10.265999794006348 C-8.878999710083008,-10.109000205993652 -2.052999973297119,-3.134999990463257 -1.781000018119812,-3.4070000648498535 C-1.5080000162124634,-3.680000066757202 -7.50600004196167,-11.380999565124512 -6.960000038146973,-11.994000434875488 C-6.414999961853027,-12.607999801635742 -5.802000045776367,-13.220999717712402 -4.710999965667725,-11.994000434875488 C-3.621000051498413,-10.767999649047852 1.0750000476837158,-4.498000144958496 1.4190000295639038,-4.429999828338623 C1.7630000114440918,-4.361000061035156 2.171999931335449,-4.702000141143799 2.0360000133514404,-5.178999900817871 C1.8990000486373901,-5.656000137329102 -0.890999972820282,-10.515999794006348 -0.890999972820282,-11.060999870300293 C-0.890999972820282,-11.605999946594238 -0.34299999475479126,-11.741000175476074 0.20200000703334808,-11.809000015258789 C0.746999979019165,-11.876999855041504 6.6020002365112305,-3.4070000648498535 6.6020002365112305,-3.4070000648498535 C6.6020002365112305,-3.4070000648498535 11.119999885559082,3.861999988555908 11.57699966430664,4.703000068664551 C12.107000350952148,5.677000045776367 12.871999740600586,8.383000373840332 12.871999740600586,8.383000373840332 C12.871999740600586,8.383000373840332 5.000999927520752,12.225000381469727 5.000999927520752,12.225000381469727z"></path></g><g opacity="1" transform="matrix(1,0,0,1,300.95599365234375,184.97000122070312)"><path fill="rgb(8,87,160)" fill-opacity="1" d=" M-1.0759999752044678,-22.638999938964844 C-1.0759999752044678,-22.638999938964844 2.8480000495910645,-7.500999927520752 2.8480000495910645,-7.500999927520752 C2.8480000495910645,-7.500999927520752 -6.122000217437744,-4.138000011444092 -6.122000217437744,-4.138000011444092 C-6.122000217437744,-4.138000011444092 -25.464000701904297,-8.342000007629395 -25.464000701904297,-8.342000007629395 C-25.464000701904297,-8.342000007629395 -25.464000701904297,20.25 -25.464000701904297,20.25 C-25.464000701904297,20.25 -22.72800064086914,27.684999465942383 -22.72800064086914,27.684999465942383 C-22.72800064086914,27.684999465942383 17.749000549316406,8.149999618530273 20.437999725341797,6 C25.464000701904297,1.9800000190734863 17.485000610351562,-11.86299991607666 17.485000610351562,-11.86299991607666 C17.485000610351562,-11.86299991607666 10.13700008392334,-27.684999465942383 10.13700008392334,-27.684999465942383 C10.13700008392334,-27.684999465942383 -1.0759999752044678,-22.638999938964844 -1.0759999752044678,-22.638999938964844z"></path></g><g opacity="1" transform="matrix(1,0,0,1,310.10198974609375,180.44400024414062)"><path fill="rgb(37,46,54)" fill-opacity="1" d=" M6.400000095367432,3.2119998931884766 C6.284999847412109,3.3380000591278076 4.031000137329102,0.8949999809265137 0.4350000023841858,-0.9020000100135803 C-3.1410000324249268,-2.739000082015991 -6.445000171661377,-3.109999895095825 -6.410999774932861,-3.2769999504089355 C-6.4039998054504395,-3.3380000591278076 -5.574999809265137,-3.328000068664551 -4.260000228881836,-3.0759999752044678 C-2.947999954223633,-2.8269999027252197 -1.159000039100647,-2.2909998893737793 0.6710000038146973,-1.3669999837875366 C2.496999979019165,-0.43799999356269836 3.98799991607666,0.6869999766349792 4.964000225067139,1.5980000495910645 C5.945000171661377,2.509000062942505 6.445000171661377,3.1710000038146973 6.400000095367432,3.2119998931884766z"></path></g><g opacity="1" transform="matrix(1,0,0,1,307.84100341796875,177.2220001220703)"><path fill="rgb(37,46,54)" fill-opacity="1" d=" M4.843999862670898,0.164000004529953 C4.800000190734863,0.32100000977516174 2.6659998893737793,-0.4020000100135803 -0.035999998450279236,-0.21299999952316284 C-2.740999937057495,-0.05999999865889549 -4.767000198364258,0.9269999861717224 -4.830999851226807,0.777999997138977 C-4.9120001792907715,0.6790000200271606 -2.9040000438690186,-0.5669999718666077 -0.07000000029802322,-0.7329999804496765 C2.76200008392334,-0.9269999861717224 4.9120001792907715,0.0560000017285347 4.843999862670898,0.164000004529953z"></path></g></g><g transform="matrix(1,0,0,1,0,0)" opacity="1" style="display: block;"><g opacity="1" transform="matrix(1,0,0,1,221.17300415039062,463.78399658203125)"><path fill="rgb(0,0,0)" fill-opacity="1" d=" M9.583000183105469,-14.454000473022461 C9.583000183105469,-14.454000473022461 6.73199987411499,15.729999542236328 6.73199987411499,15.729999542236328 C6.73199987411499,15.729999542236328 -9.583000183105469,14.517000198364258 -9.583000183105469,14.517000198364258 C-9.583000183105469,14.517000198364258 -6.789999961853027,-15.729999542236328 -6.789999961853027,-15.729999542236328 C-6.789999961853027,-15.729999542236328 9.583000183105469,-14.454000473022461 9.583000183105469,-14.454000473022461z"></path></g><g opacity="1" transform="matrix(1,0,0,1,221.531005859375,463.0379943847656)"><path fill="rgb(37,46,54)" fill-opacity="1" d=" M-1.5779999494552612,14.73900032043457 C-1.7139999866485596,14.725000381469727 -1.1180000305175781,8.11299991607666 -0.2460000067949295,-0.026000000536441803 C0.625,-8.168000221252441 1.4420000314712524,-14.753999710083008 1.5779999494552612,-14.739999771118164 C1.7139999866485596,-14.725000381469727 1.1169999837875366,-8.114999771118164 0.2460000067949295,0.027000000700354576 C-0.625,8.166000366210938 -1.4420000314712524,14.753999710083008 -1.5779999494552612,14.73900032043457z"></path></g><g opacity="1" transform="matrix(1,0,0,1,219.8459930419922,477.8399963378906)"><path fill="rgb(37,46,54)" fill-opacity="1" d=" M8.255999565124512,-0.40799999237060547 C8.255999565124512,-0.40799999237060547 -8.059000015258789,-1.6729999780654907 -8.059000015258789,-1.6729999780654907 C-8.059000015258789,-1.6729999780654907 -8.255999565124512,0.4620000123977661 -8.255999565124512,0.4620000123977661 C-8.255999565124512,0.4620000123977661 8.0600004196167,1.6729999780654907 8.0600004196167,1.6729999780654907 C8.0600004196167,1.6729999780654907 8.255999565124512,-0.40799999237060547 8.255999565124512,-0.40799999237060547z"></path></g><g opacity="1" transform="matrix(1,0,0,1,220.50999450683594,467.55999755859375)"><path fill="rgb(37,46,54)" fill-opacity="1" d=" M-8.027000427246094,1.0750000476837158 C-8.050000190734863,1.0540000200271606 -7.88700008392334,0.8270000219345093 -7.546000003814697,0.4569999873638153 C-7.203999996185303,0.08699999749660492 -6.671000003814697,-0.41600000858306885 -5.940999984741211,-0.9520000219345093 C-5.211999893188477,-1.4850000143051147 -4.2769999504089355,-2.049999952316284 -3.1389999389648438,-2.4570000171661377 C-2.009999990463257,-2.874000072479248 -0.6600000262260437,-3.11299991607666 0.7419999837875366,-2.9619998931884766 C3.556999921798706,-2.680000066757202 5.789000034332275,-1.0679999589920044 6.817999839782715,0.421999990940094 C7.35699987411499,1.159999966621399 7.666999816894531,1.8339999914169312 7.835999965667725,2.309999942779541 C8,2.7890000343322754 8.050000190734863,3.062999963760376 8.022000312805176,3.072000026702881 C7.927999973297119,3.11299991607666 7.640999794006348,2.007999897003174 6.541999816894531,0.6359999775886536 C5.48199987411499,-0.7360000014305115 3.3580000400543213,-2.1989998817443848 0.6880000233650208,-2.4700000286102295 C-1.9739999771118164,-2.746999979019165 -4.301000118255615,-1.6180000305175781 -5.742000102996826,-0.6650000214576721 C-7.214000225067139,0.31200000643730164 -7.964000225067139,1.1380000114440918 -8.027000427246094,1.0750000476837158z"></path></g><g opacity="1" transform="matrix(1,0,0,1,221.57899475097656,458.89599609375)"><path fill="rgb(0,0,0)" fill-opacity="1" d=" M-7.992000102996826,-2.2330000400543213 C-7.992000102996826,-2.2330000400543213 -8.298999786376953,1.093000054359436 -8.298999786376953,1.093000054359436 C-8.298999786376953,1.093000054359436 8.060999870300293,2.2339999675750732 8.060999870300293,2.2339999675750732 C8.060999870300293,2.2339999675750732 8.29800033569336,-0.27000001072883606 8.29800033569336,-0.27000001072883606 C8.29800033569336,-0.27000001072883606 -7.992000102996826,-2.2330000400543213 -7.992000102996826,-2.2330000400543213z"></path></g><g opacity="1" transform="matrix(1,0,0,1,289.1520080566406,463.0379943847656)"><path fill="rgb(0,0,0)" fill-opacity="1" d=" M7.203000068664551,-15.819999694824219 C7.203000068664551,-15.819999694824219 9.163999557495117,14.4350004196167 9.163999557495117,14.4350004196167 C9.163999557495117,14.4350004196167 -7.138000011444092,15.819999694824219 -7.138000011444092,15.819999694824219 C-7.138000011444092,15.819999694824219 -9.164999961853027,-14.489999771118164 -9.164999961853027,-14.489999771118164 C-9.164999961853027,-14.489999771118164 7.203000068664551,-15.819999694824219 7.203000068664551,-15.819999694824219z"></path></g><g opacity="1" transform="matrix(1,0,0,1,289.4159851074219,462.2120056152344)"><path fill="rgb(37,46,54)" fill-opacity="1" d=" M0.7739999890327454,14.803999900817871 C0.6370000243186951,14.810999870300293 0.18000000715255737,8.189000129699707 -0.24699999392032623,0.014000000432133675 C-0.6740000247955322,-8.163000106811523 -0.9100000262260437,-14.795000076293945 -0.7730000019073486,-14.803000450134277 C-0.6370000243186951,-14.8100004196167 -0.18000000715255737,-8.189000129699707 0.24799999594688416,-0.010999999940395355 C0.675000011920929,8.163000106811523 0.9100000262260437,14.79699993133545 0.7739999890327454,14.803999900817871z"></path></g><g opacity="1" transform="matrix(1,0,0,1,290.093994140625,477.12200927734375)"><path fill="rgb(37,46,54)" fill-opacity="1" d=" M8.088000297546387,-1.7359999418258667 C8.088000297546387,-1.7359999418258667 -8.222999572753906,-0.40400001406669617 -8.222999572753906,-0.40400001406669617 C-8.222999572753906,-0.40400001406669617 -8.079000473022461,1.7359999418258667 -8.079000473022461,1.7359999418258667 C-8.079000473022461,1.7359999418258667 8.222999572753906,0.3499999940395355 8.222999572753906,0.3499999940395355 C8.222999572753906,0.3499999940395355 8.088000297546387,-1.7359999418258667 8.088000297546387,-1.7359999418258667z"></path></g><g opacity="1" transform="matrix(1,0,0,1,289.4490051269531,466.427001953125)"><path fill="rgb(37,46,54)" fill-opacity="1" d=" M-8.081999778747559,2.743000030517578 C-8.107999801635742,2.7260000705718994 -7.982999801635742,2.4760000705718994 -7.703999996185303,2.055999994277954 C-7.426000118255615,1.6369999647140503 -6.979000091552734,1.0570000410079956 -6.3429999351501465,0.4129999876022339 C-5.706999778747559,-0.2290000021457672 -4.873000144958496,-0.9359999895095825 -3.813999891281128,-1.5180000066757202 C-2.7660000324249268,-2.1080000400543213 -1.4700000286102295,-2.558000087738037 -0.06199999898672104,-2.630000114440918 C2.76200008392334,-2.796999931335449 5.2210001945495605,-1.5579999685287476 6.4730000495910645,-0.25 C7.120999813079834,0.3930000066757202 7.534999847412109,1.0099999904632568 7.776000022888184,1.4529999494552612 C8.013999938964844,1.899999976158142 8.107999801635742,2.1630001068115234 8.081000328063965,2.1760001182556152 C7.994999885559082,2.2309999465942383 7.535999774932861,1.1859999895095825 6.234000205993652,0.004999999888241291 C4.9710001945495605,-1.1820000410079956 2.6419999599456787,-2.2899999618530273 -0.03799999877810478,-2.134999990463257 C-2.7100000381469727,-1.9880000352859497 -4.828999996185303,-0.5059999823570251 -6.10099983215332,0.6639999747276306 C-7.400000095367432,1.8609999418258667 -8.010000228881836,2.7960000038146973 -8.081999778747559,2.743000030517578z"></path></g><g opacity="1" transform="matrix(1,0,0,1,288.8429870605469,458.5220031738281)"><path fill="rgb(0,0,0)" fill-opacity="1" d=" M-8.279000282287598,-1.347000002861023 C-8.279000282287598,-1.347000002861023 -8.055999755859375,1.9859999418258667 -8.055999755859375,1.9859999418258667 C-8.055999755859375,1.9859999418258667 8.279000282287598,0.5249999761581421 8.279000282287598,0.5249999761581421 C8.279000282287598,0.5249999761581421 8.116000175476074,-1.9859999418258667 8.116000175476074,-1.9859999418258667 C8.116000175476074,-1.9859999418258667 -8.279000282287598,-1.347000002861023 -8.279000282287598,-1.347000002861023z"></path></g><g opacity="1" transform="matrix(1,0,0,1,235.38099670410156,155.2519989013672)"><path fill="rgb(158,255,246)" fill-opacity="1" d=" M14.803000450134277,24.518999099731445 C14.803000450134277,24.518999099731445 -7.664000034332275,27.871000289916992 -7.664000034332275,27.871000289916992 C-7.664000034332275,27.871000289916992 -8.715999603271484,8.64799976348877 -8.715999603271484,8.64799976348877 C-8.715999603271484,8.64799976348877 -10.33899974822998,8.579000473022461 -11.774999618530273,0.37700000405311584 C-13.210000038146973,-7.824999809265137 -15.862000465393066,-21.72599983215332 -15.862000465393066,-21.72599983215332 C-6.670000076293945,-27.40999984741211 4.927000045776367,-27.871000289916992 14.449000358581543,-22.930999755859375 C14.449000358581543,-22.930999755859375 15.862000465393066,-22.197999954223633 15.862000465393066,-22.197999954223633 C15.862000465393066,-22.197999954223633 14.803000450134277,24.518999099731445 14.803000450134277,24.518999099731445z"></path></g><g opacity="1" transform="matrix(1,0,0,1,253.72500610351562,146.62600708007812)"><path fill="rgb(158,255,246)" fill-opacity="1" d=" M-3.513000011444092,-3.0320000648498535 C-3.378000020980835,-3.115999937057495 2.065000057220459,-5.64900016784668 2.7890000343322754,0 C3.513000011444092,5.64900016784668 -2.507999897003174,5.249000072479248 -2.5390000343322754,5.089000225067139 C-2.569999933242798,4.927999973297119 -3.513000011444092,-3.0320000648498535 -3.513000011444092,-3.0320000648498535z"></path></g><g opacity="1" transform="matrix(1,0,0,1,221.01699829101562,151.88699340820312)"><path fill="rgb(158,255,246)" fill-opacity="1" d=" M1.6720000505447388,-5.040999889373779 C1.5169999599456787,-5.078000068664551 -3.8889999389648438,-5.589000225067139 -2.7939999103546143,0 C-1.6979999542236328,5.589000225067139 3.8889999389648438,3.309999942779541 3.868000030517578,3.1480000019073486 C3.8469998836517334,2.984999895095825 1.6720000505447388,-5.040999889373779 1.6720000505447388,-5.040999889373779z"></path></g><g opacity="1" transform="matrix(1,0,0,1,235.4290008544922,148.83299255371094)"><path fill="rgb(37,46,54)" fill-opacity="1" d=" M16.56800079345703,-6.171999931335449 C16.461000442504883,-1.3229999542236328 17.033000946044922,1.1230000257492065 16.73699951171875,4.3979997634887695 C16.270000457763672,9.579999923706055 14.32800006866455,13.8100004196167 10.086999893188477,17.04800033569336 C5.8460001945495605,20.28499984741211 -0.44200000166893005,21.257999420166016 -4.978000164031982,18.520000457763672 C-8.12600040435791,16.6200008392334 -10.517000198364258,14.284000396728516 -11.5,10.815999984741211 C-12.482999801635742,7.3470001220703125 -13.907999992370605,1.1549999713897705 -14.510000228881836,-2.3980000019073486 C-15.595999717712402,-8.805000305175781 -17.034000396728516,-14.866000175476074 -17.034000396728516,-14.866000175476074 C-17.034000396728516,-14.866000175476074 1.4119999408721924,-21.257999420166016 1.4119999408721924,-21.257999420166016 C1.4119999408721924,-21.257999420166016 13.218000411987305,-16.80500030517578 13.218000411987305,-16.80500030517578 C13.218000411987305,-16.80500030517578 16.56800079345703,-6.171999931335449 16.56800079345703,-6.171999931335449z"></path></g><g opacity="1" transform="matrix(1,0,0,1,239.60699462890625,169.45899963378906)"><path fill="rgb(37,46,54)" fill-opacity="1" d=" M-3.2330000400543213,0.8140000104904175 C-3.240999937057495,0.9490000009536743 -1.690000057220459,1.065000057220459 0.13899999856948853,0.5600000023841858 C1.9709999561309814,0.06499999761581421 3.240999937057495,-0.8199999928474426 3.1630001068115234,-0.9319999814033508 C3.0859999656677246,-1.0640000104904175 1.7510000467300415,-0.41200000047683716 -0.0020000000949949026,0.05900000035762787 C-1.75,0.5440000295639038 -3.2360000610351562,0.6610000133514404 -3.2330000400543213,0.8140000104904175z"></path></g><g opacity="1" transform="matrix(1,0,0,1,233.9969940185547,135.15699768066406)"><path fill="rgb(37,46,54)" fill-opacity="1" d=" M18.3799991607666,15.656999588012695 C18.155000686645508,10.741999626159668 17.621999740600586,5.164999961853027 17.579999923706055,-0.04800000041723251 C17.56399917602539,-2.003999948501587 17.82200050354004,-4.86899995803833 17.334999084472656,-6.76200008392334 C16.844999313354492,-8.663999557495117 16.333999633789062,-10.61400032043457 15.17199993133545,-12.213000297546387 C13.71399974822998,-14.217000007629395 11.251999855041504,-15.498000144958496 8.706999778747559,-15.57699966430664 C6.1620001792907715,-15.656999588012695 3.5920000076293945,-14.531999588012695 1.9589999914169312,-12.62399959564209 C0.25600001215934753,-14.395000457763672 -2.627000093460083,-14.994999885559082 -4.960000038146973,-14.062000274658203 C-7.294000148773193,-13.128999710083008 -8.92300033569336,-10.72700023651123 -8.871000289916992,-8.295000076293945 C-10.420999526977539,-9.317000389099121 -12.687999725341797,-9.189000129699707 -14.130000114440918,-7.997000217437744 C-15.571000099182129,-6.804999828338623 -16.05900001525879,-4.656000137329102 -15.26099967956543,-3.010999917984009 C-16.589000701904297,-2.572000026702881 -17.66200065612793,-1.4589999914169312 -18.020999908447266,-0.14900000393390656 C-18.3799991607666,1.1619999408721924 -18.014999389648438,2.630000114440918 -17.08099937438965,3.627000093460083 C-15.989999771118164,4.791999816894531 -14.288000106811523,5.255000114440918 -13.116000175476074,6.343999862670898 C-11.767999649047852,7.598999977111816 -11.309000015258789,9.670000076293945 -12.003999710083008,11.369000434875488"></path></g><g opacity="1" transform="matrix(1,0,0,1,235.34100341796875,136.05999755859375)"><path fill="rgb(8,87,160)" fill-opacity="1" d=" M-12.147000312805176,1.5880000591278076 C-12.163999557495117,1.5980000495910645 -12.086999893188477,1.784000039100647 -11.85200023651123,2.0810000896453857 C-11.616000175476074,2.372999906539917 -11.208999633789062,2.7790000438690186 -10.555000305175781,3.0999999046325684 C-9.913000106811523,3.4200000762939453 -8.993000030517578,3.6519999504089355 -7.964000225067139,3.4560000896453857 C-6.949999809265137,3.2679998874664307 -5.8429999351501465,2.6570000648498535 -5.14300012588501,1.5859999656677246 C-5.14300012588501,1.5859999656677246 -5.561999797821045,1.5460000038146973 -5.561999797821045,1.5460000038146973 C-5.164000034332275,2.7260000705718994 -3.9790000915527344,3.6689999103546143 -2.568000078201294,3.946000099182129 C-1.1549999713897705,4.283999919891357 0.5040000081062317,3.7929999828338623 1.628000020980835,2.7330000400543213 C2.677000045776367,1.7790000438690186 3.299999952316284,0.5210000276565552 3.5420000553131104,-0.7039999961853027 C3.5420000553131104,-0.7039999961853027 3.0899999141693115,-0.5789999961853027 3.0899999141693115,-0.5789999961853027 C4.366000175476074,0.7639999985694885 6.229000091552734,1.2200000286102295 7.756999969482422,1 C9.326000213623047,0.7919999957084656 10.491999626159668,-0.12800000607967377 11.142999649047852,-1.0110000371932983 C11.812999725341797,-1.909999966621399 12.038000106811523,-2.7880001068115234 12.104000091552734,-3.372999906539917 C12.164999961853027,-3.9649999141693115 12.092000007629395,-4.283999919891357 12.069999694824219,-4.281000137329102 C12.029000282287598,-4.28000020980835 12.039999961853027,-3.9600000381469727 11.925999641418457,-3.3970000743865967 C11.809000015258789,-2.8410000801086426 11.541000366210938,-2.0220000743865967 10.87600040435791,-1.2039999961853027 C10.223999977111816,-0.3970000147819519 9.130999565124512,0.40799999237060547 7.702000141143799,0.5669999718666077 C6.302000045776367,0.7409999966621399 4.605999946594238,0.28999999165534973 3.4820001125335693,-0.9179999828338623 C3.4820001125335693,-0.9179999828338623 3.132999897003174,-1.2929999828338623 3.132999897003174,-1.2929999828338623 C3.132999897003174,-1.2929999828338623 3.0290000438690186,-0.7929999828338623 3.0290000438690186,-0.7929999828338623 C2.796999931335449,0.3319999873638153 2.2130000591278076,1.4930000305175781 1.2619999647140503,2.3550000190734863 C0.23199999332427979,3.312999963760376 -1.194000005722046,3.740999937057495 -2.4560000896453857,3.4539999961853027 C-3.7200000286102295,3.2160000801086426 -4.763000011444092,2.3980000019073486 -5.122000217437744,1.3949999809265137 C-5.122000217437744,1.3949999809265137 -5.2829999923706055,0.9440000057220459 -5.2829999923706055,0.9440000057220459 C-5.2829999923706055,0.9440000057220459 -5.539999961853027,1.3550000190734863 -5.539999961853027,1.3550000190734863 C-6.13700008392334,2.312000036239624 -7.123000144958496,2.8970000743865967 -8.038000106811523,3.0950000286102295 C-8.963000297546387,3.302999973297119 -9.815999984741211,3.128000020980835 -10.435999870300293,2.861999988555908 C-11.699999809265137,2.3010001182556152 -12.08899974822998,1.5290000438690186 -12.147000312805176,1.5880000591278076z"></path></g><g opacity="1" transform="matrix(1,0,0,1,229.3179931640625,130.4739990234375)"><path fill="rgb(8,87,160)" fill-opacity="1" d=" M-6.452000141143799,4.940000057220459 C-6.355000019073486,4.945000171661377 -6.61899995803833,4.0269999504089355 -5.9720001220703125,2.7639999389648438 C-5.6479997634887695,2.1540000438690186 -5.065000057220459,1.49399995803833 -4.185999870300293,1.1449999809265137 C-3.325000047683716,0.7910000085830688 -2.187000036239624,0.7409999966621399 -1.2050000429153442,1.2100000381469727 C-1.2050000429153442,1.2100000381469727 -0.6919999718666077,1.4559999704360962 -0.6919999718666077,1.4559999704360962 C-0.6919999718666077,1.4559999704360962 -0.8289999961853027,0.9139999747276306 -0.8289999961853027,0.9139999747276306 C-0.9599999785423279,0.39800000190734863 -0.984000027179718,-0.16699999570846558 -0.8960000276565552,-0.7319999933242798 C-0.6869999766349792,-1.9989999532699585 0.06300000101327896,-3.114000082015991 1.0140000581741333,-3.7339999675750732 C1.9639999866485596,-4.372000217437744 3.062000036239624,-4.5279998779296875 3.931999921798706,-4.465000152587891 C5.72599983215332,-4.310999870300293 6.565999984741211,-3.4260001182556152 6.617000102996826,-3.5209999084472656 C6.638000011444092,-3.5399999618530273 6.4670000076293945,-3.7679998874664307 6.044000148773193,-4.067999839782715 C5.619999885559082,-4.359000205993652 4.922999858856201,-4.710000038146973 3.9749999046325684,-4.830999851226807 C3.0429999828338623,-4.947000026702881 1.8289999961853027,-4.827000141143799 0.7400000095367432,-4.131999969482422 C-0.34599998593330383,-3.4549999237060547 -1.194000005722046,-2.2219998836517334 -1.4279999732971191,-0.8069999814033508 C-1.5269999504089355,-0.17499999701976776 -1.496999979019165,0.46299999952316284 -1.3420000076293945,1.0470000505447388 C-1.3420000076293945,1.0470000505447388 -0.9660000205039978,0.7509999871253967 -0.9660000205039978,0.7509999871253967 C-2.119999885559082,0.2160000056028366 -3.4049999713897705,0.3050000071525574 -4.36899995803833,0.734000027179718 C-5.355999946594238,1.1619999408721924 -5.978000164031982,1.9390000104904175 -6.284999847412109,2.621999979019165 C-6.598999977111816,3.315000057220459 -6.63700008392334,3.930999994277954 -6.604000091552734,4.333000183105469 C-6.568999767303467,4.739999771118164 -6.478000164031982,4.946000099182129 -6.452000141143799,4.940000057220459z"></path></g><g opacity="1" transform="matrix(1,0,0,1,235.51800537109375,131.29100036621094)"><path fill="rgb(8,87,160)" fill-opacity="1" d=" M-0.5199999809265137,2.328000068664551 C-0.4519999921321869,2.2850000858306885 -0.5879999995231628,2.009999990463257 -0.6299999952316284,1.5529999732971191 C-0.6779999732971191,1.0950000286102295 -0.5960000157356262,0.4620000123977661 -0.3050000071525574,-0.2029999941587448 C-0.019999999552965164,-0.8460000157356262 0.3400000035762787,-1.5119999647140503 0.5509999990463257,-1.8700000047683716 C0.796999990940094,-2.2060000896453857 1.1030000448226929,-2.0490000247955322 1.1390000581741333,-2.0829999446868896 C1.1670000553131104,-2.0980000495910645 1.1490000486373901,-2.2130000591278076 0.9769999980926514,-2.2890000343322754 C0.8220000267028809,-2.368000030517578 0.4959999918937683,-2.3359999656677246 0.2709999978542328,-2.117000102996826 C0.04500000178813934,-1.899999976158142 -0.09300000220537186,-1.6490000486373901 -0.2809999883174896,-1.3700000047683716 C-0.46000000834465027,-1.0859999656677246 -0.6489999890327454,-0.7620000243186951 -0.8029999732971191,-0.39399999380111694 C-1.1269999742507935,0.33799999952316284 -1.1660000085830688,1.11899995803833 -1.003000020980835,1.6260000467300415 C-0.8460000157356262,2.1440000534057617 -0.5709999799728394,2.368000030517578 -0.5199999809265137,2.328000068664551z"></path></g><g opacity="1" transform="matrix(1,0,0,1,242.30299377441406,124.27100372314453)"><path fill="rgb(8,87,160)" fill-opacity="1" d=" M2.811000108718872,0.46000000834465027 C2.868000030517578,0.42899999022483826 2.743000030517578,0.02199999988079071 2.2909998893737793,-0.5080000162124634 C2.059999942779541,-0.7649999856948853 1.7389999628067017,-1.0549999475479126 1.281999945640564,-1.246999979019165 C0.8330000042915344,-1.444000005722046 0.23499999940395355,-1.49399995803833 -0.3140000104904175,-1.3240000009536743 C-1.4320000410079956,-0.9800000190734863 -2.055999994277954,-0.11999999731779099 -2.3919999599456787,0.4440000057220459 C-2.7330000400543213,1.031000018119812 -2.868000030517578,1.4190000295639038 -2.809000015258789,1.4539999961853027 C-2.742000102996826,1.4930000305175781 -2.4830000400543213,1.159999966621399 -2.0769999027252197,0.6470000147819519 C-1.6720000505447388,0.1459999978542328 -1.065999984741211,-0.5550000071525574 -0.16200000047683716,-0.8259999752044678 C0.7400000095367432,-1.1160000562667847 1.5520000457763672,-0.6610000133514404 2.0169999599456787,-0.24899999797344208 C2.494999885559082,0.1679999977350235 2.740999937057495,0.503000020980835 2.811000108718872,0.46000000834465027z"></path></g><g opacity="1" transform="matrix(1,0,0,1,246.86700439453125,145.03900146484375)"><path fill="rgb(8,87,160)" fill-opacity="1" d=" M-0.8519999980926514,3.999000072479248 C-0.7279999852180481,4.056000232696533 0.16200000047683716,2.367000102996826 0.5730000138282776,0.09000000357627869 C0.9980000257492065,-2.184999942779541 0.7630000114440918,-4.056000232696533 0.6259999871253967,-4.040999889373779 C0.46700000762939453,-4.033999919891357 0.4569999873638153,-2.203000068664551 0.04399999976158142,0.004999999888241291 C-0.35499998927116394,2.2139999866485596 -0.9990000128746033,3.943000078201294 -0.8519999980926514,3.999000072479248z"></path></g><g opacity="1" transform="matrix(1,0,0,1,244.30299377441406,147.95599365234375)"><path fill="rgb(8,87,160)" fill-opacity="1" d=" M-0.6150000095367432,2.8410000801086426 C-0.47600001096725464,2.88100004196167 0.039000000804662704,1.652999997138977 0.3799999952316284,0.061000000685453415 C0.7250000238418579,-1.531000018119812 0.7599999904632568,-2.8519999980926514 0.6150000095367432,-2.865999937057495 C0.4650000035762787,-2.88100004196167 0.19200000166893005,-1.6050000190734863 -0.1469999998807907,-0.03999999910593033 C-0.4830000102519989,1.5260000228881836 -0.7599999904632568,2.799999952316284 -0.6150000095367432,2.8410000801086426z"></path></g><g opacity="1" transform="matrix(1,0,0,1,230.2550048828125,158.0540008544922)"><path fill="rgb(8,87,160)" fill-opacity="1" d=" M-2.496999979019165,-4.283999919891357 C-2.628999948501587,-4.291999816894531 -2.5160000324249268,-1.9179999828338623 -1.0420000553131104,0.5479999780654907 C0.40700000524520874,3.0290000438690186 2.4590001106262207,4.316999912261963 2.5169999599456787,4.202000141143799 C2.628999948501587,4.079999923706055 0.8090000152587891,2.6619999408721924 -0.5740000009536743,0.28600001335144043 C-1.9880000352859497,-2.072000026702881 -2.3320000171661377,-4.316999912261963 -2.496999979019165,-4.283999919891357z"></path></g><g opacity="1" transform="matrix(1,0,0,1,225.822998046875,154.23199462890625)"><path fill="rgb(8,87,160)" fill-opacity="1" d=" M-1.2790000438690186,-4.1479997634887695 C-1.406000018119812,-4.188000202178955 -1.8209999799728394,-2.062999963760376 -0.9300000071525574,0.36000001430511475 C-0.06499999761581421,2.7939999103546143 1.621999979019165,4.188000202178955 1.6950000524520874,4.078000068664551 C1.8220000267028809,3.9730000495910645 0.3919999897480011,2.490000009536743 -0.4230000078678131,0.18400000035762787 C-1.2710000276565552,-2.109999895095825 -1.1130000352859497,-4.144999980926514 -1.2790000438690186,-4.1479997634887695z"></path></g><g opacity="1" transform="matrix(1,0,0,1,238.9929962158203,174.33999633789062)"><path fill="rgb(255,255,255)" fill-opacity="1" d=" M-12.255999565124512,4.889999866485596 C-12.255999565124512,4.889999866485596 -12.057000160217285,0.07000000029802322 -12.057000160217285,0.07000000029802322 C-12.057000160217285,0.07000000029802322 11.425000190734863,-4.889999866485596 11.425000190734863,-4.889999866485596 C11.425000190734863,-4.889999866485596 12.255999565124512,-0.9210000038146973 12.255999565124512,-0.9210000038146973 C12.255999565124512,-0.9210000038146973 -12.255999565124512,4.889999866485596 -12.255999565124512,4.889999866485596z"></path></g><g opacity="1" transform="matrix(1,0,0,1,254.81100463867188,374.2640075683594)"><path fill="rgb(37,46,54)" fill-opacity="1" d=" M-41.21099853515625,-75.3010025024414 C-41.21099853515625,-75.3010025024414 -42.45399856567383,5.375 -42.45399856567383,5.375 C-42.45399856567383,5.375 -45.194000244140625,89.1240005493164 -45.194000244140625,89.1240005493164 C-45.194000244140625,89.1240005493164 -22.461000442504883,90.76699829101562 -22.461000442504883,90.76699829101562 C-22.461000442504883,90.76699829101562 -14.791000366210938,5.375 -14.791000366210938,5.375 C-14.791000366210938,5.375 -6.061999797821045,-55.21500015258789 -6.061999797821045,-55.21500015258789 C-6.061999797821045,-55.21500015258789 -4.139999866485596,-55.33300018310547 -4.139999866485596,-55.33300018310547 C-4.139999866485596,-55.33300018310547 13.032999992370605,7.747000217437744 13.032999992370605,7.747000217437744 C13.032999992370605,7.747000217437744 23.736000061035156,88.6989974975586 23.736000061035156,88.6989974975586 C25.06599998474121,88.36599731445312 45.194000244140625,86.7770004272461 45.194000244140625,86.7770004272461 C45.194000244140625,86.7770004272461 31.229999542236328,-77.13500213623047 31.229999542236328,-77.13500213623047 C31.229999542236328,-77.13500213623047 28.90399932861328,-90.76699829101562 28.90399932861328,-90.76699829101562 C28.90399932861328,-90.76699829101562 -30.94300079345703,-89.43699645996094 -30.94300079345703,-89.43699645996094 C-30.94300079345703,-89.43699645996094 -41.21099853515625,-75.3010025024414 -41.21099853515625,-75.3010025024414z"></path></g><g opacity="1" transform="matrix(1,0,0,1,245.5260009765625,240.42799377441406)"><path fill="rgb(8,87,160)" fill-opacity="1" d=" M35.35499954223633,15.085000038146973 C35.35499954223633,15.085000038146973 33.624000549316406,-31.577999114990234 33.624000549316406,-31.577999114990234 C33.624000549316406,-31.577999114990234 30.746000289916992,-63.80099868774414 30.746000289916992,-63.80099868774414 C30.746000289916992,-63.80099868774414 11.125,-63.80099868774414 11.125,-63.80099868774414 C11.125,-63.80099868774414 6.113999843597412,-68.68599700927734 6.113999843597412,-68.68599700927734 C6.113999843597412,-68.68599700927734 -19.05299949645996,-63.80099868774414 -19.05299949645996,-63.80099868774414 C-19.05299949645996,-63.80099868774414 -21.382999420166016,-56.77199935913086 -21.382999420166016,-56.77199935913086 C-21.382999420166016,-56.77199935913086 -41.595001220703125,-50.33700180053711 -42.715999603271484,-48.375 C-42.715999603271484,-48.375 -35.62699890136719,-20.395000457763672 -32.28799819946289,-4.716000080108643 C-29.996999740600586,6.041999816894531 -27.584999084472656,17.06800079345703 -27.584999084472656,17.06800079345703 C-27.584999084472656,17.06800079345703 -33.96900177001953,68.68599700927734 -33.96900177001953,68.68599700927734 C-34.222999572753906,68.68599700927734 4.909999847412109,66.96299743652344 4.909999847412109,66.96299743652344 C4.909999847412109,66.96299743652344 42.715999603271484,62.874000549316406 42.715999603271484,62.874000549316406 C42.715999603271484,62.874000549316406 35.35499954223633,15.085000038146973 35.35499954223633,15.085000038146973z"></path></g><g opacity="1" transform="matrix(1,0,0,1,240.37100219726562,180.60299682617188)"><path fill="rgb(37,46,54)" fill-opacity="1" d=" M16.27899932861328,-3.9760000705718994 C16.29800033569336,-3.946000099182129 15.906000137329102,-3.6760001182556152 15.180000305175781,-3.2130000591278076 C14.819999694824219,-2.9739999771118164 14.368000030517578,-2.7039999961853027 13.82699966430664,-2.4179999828338623 C13.291000366210938,-2.121999979019165 12.682999610900879,-1.7790000438690186 11.982000350952148,-1.4579999446868896 C10.605999946594238,-0.7609999775886536 8.89900016784668,-0.07800000160932541 6.98199987411499,0.6169999837875366 C5.052999973297119,1.274999976158142 2.8980000019073486,1.9010000228881836 0.6039999723434448,2.4179999828338623 C-3.99399995803833,3.431999921798706 -8.246999740600586,3.8329999446868896 -11.321000099182129,3.943000078201294 C-12.857999801635742,4.001999855041504 -14.104000091552734,4.006999969482422 -14.96399974822998,3.9730000495910645 C-15.824000358581543,3.944000005722046 -16.29800033569336,3.9100000858306885 -16.29800033569336,3.874000072479248 C-16.297000885009766,3.8380000591278076 -15.821999549865723,3.802999973297119 -14.96500015258789,3.7699999809265137 C-14.107999801635742,3.742000102996826 -12.868000030517578,3.680999994277954 -11.340999603271484,3.5759999752044678 C-8.28600025177002,3.371999979019165 -4.070000171661377,2.9159998893737793 0.4909999966621399,1.909999966621399 C2.7669999599456787,1.3969999551773071 4.906000137329102,0.7900000214576721 6.827000141143799,0.16200000047683716 C8.734999656677246,-0.5019999742507935 10.440999984741211,-1.1430000066757202 11.826000213623047,-1.7920000553131104 C12.531000137329102,-2.0899999141693115 13.145999908447266,-2.4059998989105225 13.690999984741211,-2.6740000247955322 C14.241000175476074,-2.934999942779541 14.704999923706055,-3.177999973297119 15.07800006866455,-3.3889999389648438 C15.831999778747559,-3.7950000762939453 16.260000228881836,-4.006999969482422 16.27899932861328,-3.9760000705718994z"></path></g><g opacity="1" transform="matrix(1,0,0,1,243.96600341796875,257.0090026855469)"><path fill="rgb(37,46,54)" fill-opacity="1" d=" M18.615999221801758,0.5320000052452087 C18.62299919128418,0.5669999718666077 18.108999252319336,0.6959999799728394 17.17300033569336,0.8999999761581421 C16.238000869750977,1.1119999885559082 14.869999885559082,1.3489999771118164 13.170999526977539,1.5770000219345093 C9.77400016784668,2.0380001068115234 5.01800012588501,2.3269999027252197 -0.20999999344348907,1.9359999895095825 C-5.439000129699707,1.5329999923706055 -10.097999572753906,0.5289999842643738 -13.38599967956543,-0.4390000104904175 C-15.031000137329102,-0.9200000166893005 -16.347999572753906,-1.3609999418258667 -17.239999771118164,-1.7120000123977661 C-18.135000228881836,-2.055000066757202 -18.62299919128418,-2.259999990463257 -18.611000061035156,-2.2929999828338623 C-18.597999572753906,-2.3269999027252197 -18.086999893188477,-2.186000108718872 -17.173999786376953,-1.9040000438690186 C-16.264999389648438,-1.6130000352859497 -14.937000274658203,-1.2280000448226929 -13.288000106811523,-0.7940000295639038 C-9.991999626159668,0.07900000363588333 -5.360000133514404,1.0169999599456787 -0.17100000381469727,1.4170000553131104 C5.01800012588501,1.8040000200271606 9.73799991607666,1.5759999752044678 13.128000259399414,1.2109999656677246 C14.822999954223633,1.031000018119812 16.194000244140625,0.8510000109672546 17.136999130249023,0.699999988079071 C18.082000732421875,0.5590000152587891 18.608999252319336,0.4970000088214874 18.615999221801758,0.5320000052452087z"></path></g><g opacity="1" transform="matrix(1,0,0,1,247.8260040283203,285.6669921875)"><path fill="rgb(37,46,54)" fill-opacity="1" d=" M-0.3240000009536743,-13.003000259399414 C-0.18000000715255737,-13.006999969482422 0.08100000023841858,-7.186999797821045 0.25999999046325684,-0.007000000216066837 C0.4390000104904175,7.176000118255615 0.46799999475479126,13 0.3240000009536743,13.003000259399414 C0.18000000715255737,13.006999969482422 -0.08100000023841858,7.189000129699707 -0.25999999046325684,0.006000000052154064 C-0.4390000104904175,-7.173999786376953 -0.46799999475479126,-12.99899959564209 -0.3240000009536743,-13.003000259399414z"></path></g><g opacity="1" transform="matrix(1,0,0,1,250.43600463867188,318.989990234375)"><path fill="rgb(8,87,160)" fill-opacity="1" d=" M11.402999877929688,-2.0899999141693115 C11.428999900817871,-1.9490000009536743 6.343999862670898,-0.8980000019073486 0.04800000041723251,0.25600001215934753 C-6.250999927520752,1.409999966621399 -11.376999855041504,2.2309999465942383 -11.402999877929688,2.0889999866485596 C-11.428999900817871,1.9479999542236328 -6.34499979019165,0.8980000019073486 -0.04600000008940697,-0.25699999928474426 C6.25,-1.4110000133514404 11.376999855041504,-2.2309999465942383 11.402999877929688,-2.0899999141693115z"></path></g><g opacity="1" transform="matrix(1,0,0,1,278.5320129394531,379.6159973144531)"><path fill="rgb(8,87,160)" fill-opacity="1" d=" M6.382999897003174,-1.5110000371932983 C6.380000114440918,-1.3450000286102295 3.381999969482422,-1.5470000505447388 -0.15800000727176666,-0.6639999747276306 C-3.7079999446868896,0.18400000035762787 -6.276000022888184,1.74399995803833 -6.355000019073486,1.5980000495910645 C-6.388000011444092,1.5440000295639038 -5.790999889373779,1.0839999914169312 -4.71999979019165,0.5080000162124634 C-3.6510000228881836,-0.06800000369548798 -2.0899999141693115,-0.7269999980926514 -0.28200000524520874,-1.1699999570846558 C1.5269999504089355,-1.6089999675750732 3.2160000801086426,-1.74399995803833 4.429999828338623,-1.725000023841858 C5.645999908447266,-1.7079999446868896 6.388000011444092,-1.5740000009536743 6.382999897003174,-1.5110000371932983z"></path></g><g opacity="1" transform="matrix(1,0,0,1,225.99899291992188,381.9079895019531)"><path fill="rgb(8,87,160)" fill-opacity="1" d=" M4.175000190734863,0.11999999731779099 C4.140999794006348,0.27300000190734863 2.2890000343322754,-0.10899999737739563 -0.007000000216066837,0.0010000000474974513 C-2.305000066757202,0.09099999815225601 -4.116000175476074,0.6320000290870667 -4.164000034332275,0.4830000102519989 C-4.2179999351501465,0.3630000054836273 -2.4179999828338623,-0.42500001192092896 -0.029999999329447746,-0.5199999809265137 C2.3570001125335693,-0.6320000290870667 4.218999862670898,-0.004000000189989805 4.175000190734863,0.11999999731779099z"></path></g><g opacity="1" transform="matrix(1,0,0,1,212.16099548339844,231.843994140625)"><path fill="rgb(37,46,54)" fill-opacity="1" d=" M5.78000020980835,25.652000427246094 C5.76200008392334,25.6560001373291 5.705999851226807,25.481000900268555 5.616000175476074,25.142000198364258 C5.517000198364258,24.7450008392334 5.394000053405762,24.25200080871582 5.24399995803833,23.652999877929688 C4.926000118255615,22.283000946044922 4.49399995803833,20.426000595092773 3.9679999351501465,18.163999557495117 C2.9100000858306885,13.45300006866455 1.4780000448226929,7.074999809265137 -0.10400000214576721,0.02500000037252903 C-1.6790000200271606,-7.0289998054504395 -3.1029999256134033,-13.41100025177002 -4.15500020980835,-18.121999740600586 C-4.6620001792907715,-20.38800048828125 -5.078000068664551,-22.24799919128418 -5.385000228881836,-23.621000289916992 C-5.513000011444092,-24.224000930786133 -5.618000030517578,-24.72100067138672 -5.703999996185303,-25.121000289916992 C-5.770999908447266,-25.46500015258789 -5.797999858856201,-25.648000717163086 -5.78000020980835,-25.652000427246094 C-5.763000011444092,-25.656999588012695 -5.702000141143799,-25.48200035095215 -5.6020002365112305,-25.145999908447266 C-5.491000175476074,-24.75200080871582 -5.354000091552734,-24.26300048828125 -5.188000202178955,-23.66900062561035 C-4.8379998207092285,-22.384000778198242 -4.363999843597412,-20.518999099731445 -3.796999931335449,-18.207000732421875 C-2.6630001068115234,-13.583999633789062 -1.1759999990463257,-7.178999900817871 0.40400001406669617,-0.09000000357627869 C1.9839999675750732,6.997000217437744 3.359999895095825,13.425999641418457 4.328000068664551,18.086000442504883 C4.7870001792907715,20.36199951171875 5.164000034332275,22.231000900268555 5.442999839782715,23.611000061035156 C5.553999900817871,24.218000411987305 5.644999980926514,24.715999603271484 5.718999862670898,25.118999481201172 C5.776000022888184,25.46500015258789 5.797999858856201,25.648000717163086 5.78000020980835,25.652000427246094z"></path></g><g opacity="1" transform="matrix(1,0,0,1,283.21600341796875,248.04800415039062)"><path fill="rgb(37,46,54)" fill-opacity="1" d=" M-5.034999847412109,-55.255001068115234 C-5.026000022888184,-55.25600051879883 -5.011000156402588,-55.159000396728516 -4.989999771118164,-54.970001220703125 C-4.96999979019165,-54.75199890136719 -4.943999767303467,-54.47600173950195 -4.9120001792907715,-54.13199996948242 C-4.8480000495910645,-53.39400100708008 -4.761000156402588,-52.30400085449219 -4.671999931335449,-50.9010009765625 C-4.480999946594238,-48.09400177001953 -4.258999824523926,-44.03099822998047 -4.00600004196167,-39.00899887084961 C-3.505000114440918,-28.96500015258789 -2.9170000553131104,-15.086999893188477 -2.3420000076293945,0.24400000274181366 C-2.250999927520752,2.7139999866485596 -2.1619999408721924,5.146999835968018 -2.0769999027252197,7.454999923706055 C-2.0769999027252197,7.454999923706055 -2.0799999237060547,7.426000118255615 -2.0799999237060547,7.426000118255615 C-0.03700000047683716,20.913000106811523 1.7710000276565552,32.849998474121094 3.0759999752044678,41.459999084472656 C3.697999954223633,45.72200012207031 4.201000213623047,49.15800094604492 4.552999973297119,51.56999969482422 C4.711999893188477,52.729000091552734 4.836999893188477,53.64099884033203 4.927999973297119,54.30099868774414 C4.9629998207092285,54.59000015258789 4.991000175476074,54.823001861572266 5.013000011444092,55.0099983215332 C5.0289998054504395,55.16999816894531 5.033999919891357,55.25299835205078 5.026000022888184,55.25400161743164 C5.01800012588501,55.255001068115234 4.997000217437744,55.17499923706055 4.965000152587891,55.018001556396484 C4.929999828338623,54.832000732421875 4.886000156402588,54.60100173950195 4.831999778747559,54.314998626708984 C4.71999979019165,53.659000396728516 4.565000057220459,52.75199890136719 4.368000030517578,51.5989990234375 C3.9779999256134033,49.19200134277344 3.4230000972747803,45.763999938964844 2.734999895095825,41.512001037597656 C1.3880000114440918,32.90999984741211 -0.47999998927116394,20.981000900268555 -2.5899999141693115,7.504000186920166 C-2.5899999141693115,7.504000186920166 -2.5929999351501465,7.489999771118164 -2.5929999351501465,7.489999771118164 C-2.5929999351501465,7.489999771118164 -2.5929999351501465,7.473999977111816 -2.5929999351501465,7.473999977111816 C-2.678999900817871,5.165999889373779 -2.7699999809265137,2.7339999675750732 -2.861999988555908,0.2639999985694885 C-4.046999931335449,-30.003999710083008 -4.923999786376953,-52.41899871826172 -5.034999847412109,-55.255001068115234z"></path></g><g opacity="1" transform="matrix(1,0,0,1,239.58299255371094,182.6719970703125)"><path fill="rgb(0,0,0)" fill-opacity="1" d=" M14.468000411987305,-4.2779998779296875 C5.008999824523926,-0.4659999907016754 -4.336999893188477,1.8869999647140503 -14.486000061035156,1.8940000534057617 C-13.1899995803833,3.305999994277954 -11.182000160217285,4.040999889373779 -9.192000389099121,4.223999977111816 C-7.202000141143799,4.4079999923706055 -5.205999851226807,4.093999862670898 -3.253999948501587,3.7179999351501465 C1.684000015258789,2.7660000324249268 6.52400016784668,1.406000018119812 11.190999984741211,-0.3400000035762787 C12.802000045776367,-0.9440000057220459 14.689000129699707,-2.681999921798706 14.468000411987305,-4.2779998779296875z"></path></g><g opacity="1" transform="matrix(1,0,0,1,248.7480010986328,264.6199951171875)"><path fill="rgb(0,0,0)" fill-opacity="1" d=" M-12.46500015258789,-1.8899999856948853 C-12.46500015258789,-1.8899999856948853 -12.774999618530273,-1.937999963760376 -12.774999618530273,-1.937999963760376 C-9.71399974822998,1.5410000085830688 -4.632999897003174,1.902999997138977 0,1.934999942779541 C4.632999897003174,1.9670000076293945 9.666999816894531,1.6679999828338623 12.774999618530273,-1.7680000066757202 C4.46999979019165,-0.09700000286102295 -4.176000118255615,-0.13899999856948853 -12.46500015258789,-1.8899999856948853z"></path></g></g><g clip-path="url(#__lottie_element_7)" transform="matrix(1,0,0,1,0,0)" opacity="1" style="display: block;"><g transform="matrix(1,0,0,1,-2.5,-5)" opacity="1" style="display: block;"><path fill="rgb(59,223,210)" fill-opacity="1" d=" M238.08900451660156,87.58799743652344 C238.08900451660156,87.58799743652344 214.64100646972656,61.9379997253418 214.64100646972656,61.9379997253418 C214.64100646972656,61.9379997253418 234.46200561523438,50.71099853515625 234.46200561523438,50.71099853515625 C174.8280029296875,53.742000579833984 124.4990005493164,92.61399841308594 104.63700103759766,146.16400146484375 C104.63700103759766,146.16400146484375 85.01599884033203,140.7830047607422 85.01599884033203,140.7830047607422 C85.01599884033203,140.7830047607422 97.57099914550781,171.0679931640625 97.57099914550781,171.0679931640625 C97.57099914550781,171.0679931640625 108.55000305175781,197.552001953125 108.55000305175781,197.552001953125 C108.55000305175781,197.552001953125 133.8209991455078,178.63999938964844 133.8209991455078,178.63999938964844 C133.8209991455078,178.63999938964844 157.7519989013672,160.7310028076172 157.7519989013672,160.7310028076172 C157.7519989013672,160.7310028076172 140.50799560546875,156.0019989013672 140.50799560546875,156.0019989013672 C156.28900146484375,117.0270004272461 193.8939971923828,89.14099884033203 238.08900451660156,87.58799743652344z"></path></g><g transform="matrix(1,0,0,1,-2.5,-5)" opacity="1" style="display: block;"><path fill="rgb(28,188,175)" fill-opacity="1" d=" M272.5559997558594,50.59199905395508 C272.5559997558594,50.59199905395508 276.1239929199219,27.11199951171875 276.1239929199219,27.11199951171875 C276.1239929199219,27.11199951171875 234.46200561523438,50.71099853515625 234.46200561523438,50.71099853515625 C234.46200561523438,50.71099853515625 214.64100646972656,61.9379997253418 214.64100646972656,61.9379997253418 C214.64100646972656,61.9379997253418 238.08900451660156,87.58799743652344 238.08900451660156,87.58799743652344 C238.08900451660156,87.58799743652344 262.8240051269531,114.64600372314453 262.8240051269531,114.64600372314453 C262.8240051269531,114.64600372314453 266.99700927734375,87.18000030517578 266.99700927734375,87.18000030517578 C289.50799560546875,91.39099884033203 310.2860107421875,102.5979995727539 326.2510070800781,119.40499877929688 C326.2510070800781,119.40499877929688 328.7909851074219,87.21800231933594 328.7909851074219,87.21800231933594 C328.7909851074219,87.21800231933594 355.2080078125,96.21299743652344 355.2080078125,96.21299743652344 C333.2980041503906,72.14099884033203 304.1679992675781,56.222999572753906 272.5559997558594,50.59199905395508z"></path></g><g transform="matrix(1,0,0,1,-2.5,-5)" opacity="1" style="display: block;"><path fill="rgb(59,223,210)" fill-opacity="1" d=" M377.58599853515625,128.656005859375 C376.47900390625,126.47200012207031 373.70098876953125,121.36000061035156 371.4049987792969,117.26300048828125 C371.4049987792969,117.26300048828125 386.9639892578125,107.0260009765625 386.9639892578125,107.0260009765625 C386.9639892578125,107.0260009765625 355.2080078125,96.21299743652344 355.2080078125,96.21299743652344 C355.2080078125,96.21299743652344 328.7909851074219,87.21800231933594 328.7909851074219,87.21800231933594 C328.7909851074219,87.21800231933594 326.2510070800781,119.40499877929688 326.2510070800781,119.40499877929688 C326.2510070800781,119.40499877929688 323.9570007324219,148.4810028076172 323.9570007324219,148.4810028076172 C323.9570007324219,148.4810028076172 340.4100036621094,137.65499877929688 340.4100036621094,137.65499877929688 C342.0889892578125,140.69000244140625 343.8500061035156,143.93699645996094 344.5790100097656,145.37600708007812 C352.36700439453125,160.7519989013672 356.31500244140625,177.36000061035156 356.31500244140625,194.74000549316406 C356.31500244140625,209.29400634765625 351.27301025390625,227.66400146484375 345.3089904785156,241.8040008544922 C345.3089904785156,241.8040008544922 373.4549865722656,232.38999938964844 373.4549865722656,232.38999938964844 C373.4549865722656,232.38999938964844 375.6059875488281,261.6719970703125 375.6059875488281,261.6719970703125 C375.6059875488281,261.6719970703125 376.7340087890625,262.20098876953125 376.7340087890625,262.20098876953125 C385.8789978027344,242.6929931640625 393.31500244140625,216.4290008544922 393.31500244140625,194.74000549316406 C393.31500244140625,171.4969940185547 388.02398681640625,149.26300048828125 377.58599853515625,128.656005859375z"></path></g><g transform="matrix(1,0,0,1,-2.5,-5)" opacity="1" style="display: block;"><path fill="rgb(29,189,177)" fill-opacity="1" d=" M375.6050109863281,261.6719970703125 C375.6050109863281,261.6719970703125 373.4540100097656,232.38999938964844 373.4540100097656,232.38999938964844 C373.4540100097656,232.38999938964844 345.3080139160156,241.80499267578125 345.3080139160156,241.80499267578125 C345.3080139160156,241.80499267578125 315.17401123046875,251.88400268554688 315.17401123046875,251.88400268554688 C315.17401123046875,251.88400268554688 332.2250061035156,263.2349853515625 332.2250061035156,263.2349853515625 C311.3169860839844,289.2820129394531 280.3689880371094,304.1679992675781 246.88600158691406,304.1679992675781 C246.88600158691406,304.1679992675781 241.6580047607422,304.1679992675781 241.6580047607422,304.1679992675781 C241.6580047607422,304.1679992675781 148.38299560546875,304.1679992675781 148.38299560546875,304.1679992675781 C148.38299560546875,304.1679992675781 172.18800354003906,322.6679992675781 172.18800354003906,322.6679992675781 C172.18800354003906,322.6679992675781 171.4759979248047,323.22100830078125 171.4759979248047,323.22100830078125 C171.4759979248047,323.22100830078125 148.38400268554688,341.1679992675781 148.38400268554688,341.1679992675781 C148.38400268554688,341.1679992675781 241.6580047607422,341.1679992675781 241.6580047607422,341.1679992675781 C241.6580047607422,341.1679992675781 246.88600158691406,341.1679992675781 246.88600158691406,341.1679992675781 C260.5880126953125,341.1679992675781 273.9679870605469,339.2919921875 286.74798583984375,335.7099914550781 C310.5570068359375,329.0369873046875 332.2619934082031,316.39898681640625 350.0140075683594,298.7099914550781 C354.6619873046875,294.0780029296875 359.0480041503906,289.1099853515625 363.1199951171875,283.802001953125 C363.1199951171875,283.802001953125 377.95599365234375,293.6789855957031 377.95599365234375,293.6789855957031 C377.95599365234375,293.6789855957031 375.6050109863281,261.6719970703125 375.6050109863281,261.6719970703125z"></path></g><g transform="matrix(1,0,0,1,-2.5,-5)" opacity="1" style="display: block;"><path fill="rgb(54,217,204)" fill-opacity="1" d=" M148.38400268554688,304.1679992675781 C148.38400268554688,304.1679992675781 131.36500549316406,290.9410095214844 131.36500549316406,290.9410095214844 C131.36500549316406,290.9410095214844 118.98300170898438,281.3190002441406 118.98300170898438,281.3190002441406 C118.98300170898438,281.3190002441406 118.98300170898438,304.1679992675781 118.98300170898438,304.1679992675781 C118.98300170898438,304.1679992675781 18.357999801635742,304.1679992675781 18.357999801635742,304.1679992675781 C18.357999801635742,304.1679992675781 18.357999801635742,341.1679992675781 18.357999801635742,341.1679992675781 C18.357999801635742,341.1679992675781 118.98300170898438,341.1679992675781 118.98300170898438,341.1679992675781 C118.98300170898438,341.1679992675781 118.98300170898438,364.0169982910156 118.98300170898438,364.0169982910156 C118.98300170898438,364.0169982910156 148.38400268554688,341.1679992675781 148.38400268554688,341.1679992675781 C148.38400268554688,341.1679992675781 171.4770050048828,323.22100830078125 171.4770050048828,323.22100830078125 C171.4770050048828,323.22100830078125 172.18800354003906,322.6679992675781 172.18800354003906,322.6679992675781 C172.18800354003906,322.6679992675781 148.38400268554688,304.1679992675781 148.38400268554688,304.1679992675781z"></path></g></g><g transform="matrix(0.7796333432197571,0,0,0.7796333432197571,46.05662536621094,36.30540466308594)" opacity="1" style="display: block;"><g opacity="1" transform="matrix(1,0,0,1,179.20799255371094,145.03500366210938)"><path fill="rgb(0,221,179)" fill-opacity="1" d=" M30.024999618530273,19.85700035095215 C30.024999618530273,19.85700035095215 19.007999420166016,17.392000198364258 19.007999420166016,17.392000198364258 C15.899999618530273,20.916000366210938 11.8100004196167,23.650999069213867 6.985000133514404,25.121999740600586 C-6.889999866485596,29.351999282836914 -21.56599998474121,21.533000946044922 -25.79599952697754,7.658999919891357 C-30.025999069213867,-6.216000080108643 -22.207000732421875,-20.892000198364258 -8.331999778747559,-25.121999740600586 C5.541999816894531,-29.351999282836914 20.2189998626709,-21.534000396728516 24.448999404907227,-7.658999919891357 C26.21500015258789,-1.8660000562667847 25.874000549316406,4.065000057220459 23.875,9.319000244140625 C23.875,9.319000244140625 23.884000778198242,9.307000160217285 23.884000778198242,9.307000160217285 C23.884000778198242,9.307000160217285 30.024999618530273,19.85700035095215 30.024999618530273,19.85700035095215z"></path></g><g opacity="1" transform="matrix(1,0,0,1,178.4409942626953,145.03199768066406)"><path fill="rgb(255,255,255)" fill-opacity="1" d=" M-14.420999526977539,0.5389999747276306 C-14.420999526977539,0.5389999747276306 -10.647000312805176,-3.234999895095825 -10.647000312805176,-3.234999895095825 C-10.647000312805176,-3.234999895095825 -3.36899995803833,3.234999895095825 -3.36899995803833,3.234999895095825 C-3.36899995803833,3.234999895095825 10.916999816894531,-10.512999534606934 10.916999816894531,-10.512999534606934 C10.916999816894531,-10.512999534606934 14.420999526977539,-6.738999843597412 14.420999526977539,-6.738999843597412 C14.420999526977539,-6.738999843597412 -3.9079999923706055,10.512999534606934 -3.9079999923706055,10.512999534606934 C-3.9079999923706055,10.512999534606934 -14.420999526977539,0.5389999747276306 -14.420999526977539,0.5389999747276306z"></path></g></g></g></svg>